<svg width="389" height="45" viewBox="0 0 389 45" fill="none" xmlns="http://www.w3.org/2000/svg">
<g clip-path="url(#clip0_630_756)">
<path d="M52.5966 31.829C52.5966 40.0034 46.6058 43.6307 37.4072 43.6307H0V0.357666H35.6619C45.6151 0.357666 50.8512 4.08722 50.8512 12.0572C50.8512 18.0347 48.2096 20.6914 43.8226 21.7643C49.0115 22.6328 52.5966 25.2895 52.5966 31.829ZM8.96264 8.37877V18.0858H35.8506C39.6243 18.0858 41.9829 17.0129 41.9829 13.3345C41.9829 9.65601 39.6243 8.37877 35.7091 8.37877H8.96264ZM8.96264 35.6607H37.4072C41.464 35.6607 43.6811 34.2813 43.6811 30.6539C43.6811 27.3842 41.6999 25.596 37.4072 25.596H8.96264V35.6607Z" fill="#FFFEF3"/>
<path d="M83.7771 20.6914L101.089 0.357666H112.646L88.4 28.6103V43.6307H79.2015V28.6103L54.9551 0.357666H66.5122L83.7771 20.6914Z" fill="#FFFEF3"/>
<path d="M182.13 0.357666H191.235V43.6307H182.649L146.752 13.7432V43.6307H137.695V0.357666H146.233L182.13 30.1941V0.357666Z" fill="#FFFEF3"/>
<path d="M238.029 0C251.945 0 260.011 8.32764 260.011 21.9686C260.011 35.7118 251.945 44.0394 238.029 44.0394H220.67C206.754 44.0394 198.688 35.7118 198.688 22.0197C198.688 8.32764 206.754 0 220.67 0L238.029 0ZM238.029 35.0987C246.614 35.0987 251.001 30.143 251.001 22.0197C251.001 13.8964 246.614 8.94072 238.029 8.94072H220.67C212.085 8.94072 207.698 13.8964 207.698 21.9686C207.698 30.143 212.085 35.0987 220.67 35.0987H238.029Z" fill="url(#paint0_linear_630_756)"/>
<path d="M300.485 0.357666C314.4 0.357666 322.231 8.37877 322.231 21.9687C322.231 35.6096 314.4 43.5797 300.485 43.5797H267.464V0.357666H300.485ZM276.663 34.6389H300.485C309.07 34.6389 313.221 29.9898 313.221 22.0708C313.221 13.9986 309.07 9.29838 300.485 9.29838H276.663V34.6389Z" fill="#FFFEF3"/>
<path d="M366.667 0C380.582 0 388.649 8.32764 388.649 21.9686C388.649 35.7118 380.582 44.0394 366.667 44.0394H349.307C335.392 44.0394 327.325 35.7118 327.325 22.0197C327.325 8.32764 335.392 0 349.307 0L366.667 0ZM366.667 35.0987C375.252 35.0987 379.639 30.143 379.639 22.0197C379.639 13.8964 375.252 8.94072 366.667 8.94072H349.307C340.722 8.94072 336.335 13.8964 336.335 21.9686C336.335 30.143 340.722 35.0987 349.307 35.0987H366.667Z" fill="#FFFEF3"/>
</g>
<defs>
<linearGradient id="paint0_linear_630_756" x1="198.641" y1="22.0197" x2="260.011" y2="22.0197" gradientUnits="userSpaceOnUse">
<stop stop-color="#EEC889"/>
<stop offset="1" stop-color="#EAAE64"/>
</linearGradient>
<clipPath id="clip0_630_756">
<rect width="388.696" height="44.0394" fill="white"/>
</clipPath>
</defs>
</svg>
