<svg width="50" height="50" viewBox="0 0 50 50" fill="none" xmlns="http://www.w3.org/2000/svg">
<g clip-path="url(#clip0_219_26)">
<path d="M10.0054 8.82905H8.42696C7.58799 8.82905 6.90537 9.51167 6.90537 10.3507V18.694H5.27022C4.86573 18.694 4.5378 19.0218 4.5378 19.4264C4.5378 19.831 4.86573 20.1588 5.27022 20.1588H25.7892C26.1937 20.1588 26.5216 19.831 26.5216 19.4264C26.5216 19.0218 26.1937 18.694 25.7892 18.694H24.154V8.77231C24.154 7.93325 23.4714 7.25073 22.6323 7.25073H21.0539C20.2149 7.25073 19.5323 7.93325 19.5323 8.77231V18.694H17.8404V13.3102C17.8404 12.4711 17.1578 11.7886 16.3188 11.7886H14.7403C13.9014 11.7886 13.2188 12.4711 13.2188 13.3102V18.694H11.5269V10.3507C11.5271 9.51167 10.8444 8.82905 10.0054 8.82905ZM8.37022 10.3507C8.37022 10.3194 8.39571 10.2939 8.42696 10.2939H10.0054C10.0367 10.2939 10.0622 10.3194 10.0622 10.3507V18.694H8.37022V10.3507ZM20.9973 8.77231C20.9973 8.74106 21.0228 8.71558 21.054 8.71558H22.6324C22.6638 8.71558 22.6893 8.74106 22.6893 8.77231V18.694H20.9974V8.77231H20.9973ZM14.6838 13.3102C14.6838 13.279 14.7093 13.2535 14.7405 13.2535H16.3189C16.3503 13.2535 16.3758 13.279 16.3758 13.3102V18.694H14.6839V13.3102H14.6838Z" fill="white"/>
<path d="M48.7556 22.9899L47.5015 22.7287C47.3578 22.3002 47.1838 21.8808 46.9811 21.4746L47.6837 20.4021C48.0873 19.786 48.0022 18.9608 47.4814 18.4401L45.6171 16.5758C45.0963 16.055 44.271 15.97 43.6553 16.3737L42.5827 17.0764C42.1766 16.8736 41.7571 16.6996 41.3287 16.556L41.0674 15.3018C40.9172 14.5807 40.2736 14.0574 39.5371 14.0574H36.9006C36.1641 14.0574 35.5205 14.5807 35.3703 15.3018L35.109 16.556C34.6805 16.6996 34.261 16.8736 33.855 17.0764L32.7825 16.3738C32.2538 16.0272 31.5717 16.0417 31.0595 16.3817V3.54395C31.0595 2.05244 29.846 0.838867 28.3544 0.838867H2.31055C1.03652 0.838867 0 1.87539 0 3.14941V5.31738C0 5.72197 0.32793 6.0498 0.732422 6.0498C1.13691 6.0498 1.46484 5.72197 1.46484 5.31738V3.14941C1.46484 2.68311 1.84424 2.30371 2.31055 2.30371H28.3545C29.0383 2.30371 29.5947 2.86006 29.5947 3.54395V17.8018L28.9563 18.4401C28.4355 18.9608 28.3504 19.786 28.7541 20.4021L29.4567 21.4746C29.2541 21.8807 29.08 22.3001 28.9363 22.7287L27.6822 22.9899C26.9611 23.1401 26.4378 23.7837 26.4378 24.5203V25.1064H11.9121C11.7029 25.1064 11.5037 25.1959 11.3647 25.3523L6.39746 30.94V25.8389C6.39746 25.4343 6.06953 25.1064 5.66504 25.1064H2.31055C1.84424 25.1064 1.46484 24.7266 1.46484 24.2598V8.74512C1.46484 8.34053 1.13691 8.0127 0.732422 8.0127C0.32793 8.0127 0 8.34053 0 8.74512V24.2598C0 25.5344 1.03652 26.5713 2.31055 26.5713H4.93262V31.0772C4.93262 31.8564 5.5665 32.4903 6.3457 32.4903C6.75107 32.4903 7.13701 32.3161 7.40186 32.015L12.2409 26.5714H14.208V35.6212C14.208 36.0258 14.5359 36.3536 14.9404 36.3536C15.3449 36.3536 15.6729 36.0258 15.6729 35.6212V26.5714H26.4378V27.1568C26.4378 27.8933 26.961 28.5368 27.6821 28.6872L28.9362 28.9484C29.0799 29.3771 29.254 29.7965 29.4566 30.2025L28.754 31.275C28.3504 31.891 28.4354 32.7161 28.9562 33.237L30.8205 35.1012C31.3412 35.622 32.1664 35.7071 32.7824 35.3034L33.855 34.6008C34.2611 34.8035 34.6806 34.9775 35.109 35.1212L35.3703 36.3754C35.5205 37.0965 36.1641 37.6197 36.9006 37.6197H39.5371C40.2736 37.6197 40.9172 37.0965 41.0674 36.3754L41.3287 35.1212C41.7572 34.9775 42.1767 34.8035 42.5827 34.6008L43.6552 35.3034C43.703 35.3348 43.7524 35.3621 43.8026 35.3876V40.9317C43.8026 41.398 43.4232 41.7774 42.9569 41.7774H39.6024C39.1979 41.7774 38.87 42.1053 38.87 42.5099V47.612L33.9018 42.0232C33.7628 41.8669 33.5636 41.7774 33.3544 41.7774H16.5185C16.0521 41.7774 15.6728 41.398 15.6728 40.9317V39.0488C15.6728 38.6442 15.3448 38.3164 14.9403 38.3164C14.5358 38.3164 14.2079 38.6442 14.2079 39.0488V40.9315C14.2079 42.2056 15.2444 43.2421 16.5185 43.2421H33.0255L37.8648 48.6859C38.1324 48.9879 38.5177 49.161 38.9218 49.161C39.701 49.161 40.3349 48.5271 40.3349 47.7479V43.2422H42.9569C44.231 43.2422 45.2675 42.2057 45.2675 40.9316V35.3623C45.3936 35.2931 45.5118 35.2064 45.6172 35.1011L47.4815 33.2367C48.0022 32.7159 48.0873 31.8908 47.6837 31.2748L46.9811 30.2023C47.1837 29.7963 47.3578 29.3768 47.5015 28.9482L48.7558 28.6869C49.4767 28.5366 50 27.8931 50 27.1566V24.5202C50 23.7837 49.4767 23.1401 48.7556 22.9899ZM48.5352 27.1567C48.5352 27.2031 48.5022 27.2436 48.4569 27.2529L46.7804 27.6021C46.5136 27.6577 46.2997 27.8568 46.2252 28.119C46.0513 28.7312 45.8046 29.3255 45.4922 29.8857C45.3594 30.1238 45.3698 30.4159 45.5191 30.6439L46.4585 32.0777C46.4839 32.1164 46.4785 32.1684 46.4458 32.2011L44.5814 34.0654C44.5487 34.0982 44.497 34.1035 44.4581 34.0781L43.0244 33.1389C42.7964 32.9895 42.5044 32.979 42.2663 33.1119C41.7061 33.4243 41.1116 33.6711 40.4996 33.845C40.2375 33.9195 40.0384 34.1333 39.9828 34.4002L39.6335 36.0768C39.624 36.1221 39.5836 36.155 39.5373 36.155H36.9008C36.8545 36.155 36.814 36.1221 36.8046 36.0768L36.4553 34.4002C36.3997 34.1334 36.2006 33.9195 35.9385 33.845C35.3265 33.6711 34.732 33.4244 34.1718 33.1119C34.0606 33.0499 33.9378 33.0191 33.815 33.0191C33.6749 33.0191 33.5352 33.0593 33.4137 33.139L31.98 34.0782C31.9414 34.1036 31.8895 34.0983 31.8565 34.0654L29.9923 32.2013C29.9596 32.1685 29.9541 32.1166 29.9795 32.0778L30.9188 30.6441C31.0683 30.4161 31.0786 30.124 30.9459 29.8859C30.6334 29.3257 30.3867 28.7313 30.2128 28.119C30.1383 27.8569 29.9244 27.6578 29.6576 27.6022L27.9813 27.2531C27.9358 27.2436 27.9029 27.2031 27.9029 27.1568V24.5204C27.9029 24.474 27.9357 24.4336 27.9812 24.4242L29.6576 24.075C29.9244 24.0194 30.1383 23.8203 30.2128 23.5582C30.3867 22.946 30.6334 22.3517 30.9459 21.7913C31.0786 21.5532 31.0683 21.2611 30.9188 21.0331L29.9795 19.5994C29.9541 19.5607 29.9595 19.5088 29.9922 19.476L31.8564 17.6117C31.8893 17.579 31.9412 17.5736 31.9799 17.599L33.4136 18.5383C33.6415 18.6875 33.9335 18.698 34.1717 18.5652C34.732 18.2527 35.3265 18.0061 35.9384 17.8321C36.2005 17.7576 36.3996 17.5438 36.4552 17.277L36.8045 15.6004C36.814 15.5551 36.8544 15.5222 36.9007 15.5222H39.5372C39.5835 15.5222 39.624 15.5551 39.6334 15.6004L39.9827 17.277C40.0383 17.5438 40.2374 17.7576 40.4995 17.8321C41.1115 18.0061 41.706 18.2528 42.2662 18.5652C42.5043 18.698 42.7963 18.6875 43.0243 18.5383L44.4582 17.5989C44.4969 17.5735 44.5488 17.5789 44.5814 17.6116L46.4458 19.4761C46.4785 19.5088 46.4839 19.5606 46.4585 19.5994L45.5191 21.0331C45.3697 21.2611 45.3594 21.5532 45.4921 21.7913C45.8046 22.3516 46.0513 22.9461 46.2252 23.5581C46.2997 23.8203 46.5136 24.0194 46.7804 24.075L48.4569 24.4242C48.5022 24.4337 48.5351 24.4741 48.5351 24.5204V27.1567H48.5352Z" fill="white"/>
<path d="M38.2187 19.1875C37.1449 19.1875 36.0783 19.4495 35.1342 19.9452C34.7761 20.1333 34.6381 20.576 34.8262 20.9342C35.0142 21.2923 35.4568 21.4301 35.8151 21.2422C36.5606 20.8508 37.3693 20.6523 38.2188 20.6523C41.0787 20.6523 43.4054 22.979 43.4054 25.8388C43.4054 28.6986 41.0787 31.0253 38.2188 31.0253C35.359 31.0253 33.0323 28.6986 33.0323 25.8388C33.0323 24.9578 33.2566 24.0887 33.6811 23.3258C33.8778 22.9723 33.7506 22.5263 33.3972 22.3297C33.0435 22.1329 32.5976 22.2601 32.4011 22.6136C31.8558 23.5938 31.5675 24.7092 31.5675 25.8388C31.5675 29.5064 34.5513 32.4901 38.2188 32.4901C41.8864 32.4901 44.8702 29.5063 44.8702 25.8388C44.8701 22.1713 41.8863 19.1875 38.2187 19.1875Z" fill="white"/>
<path d="M37.4216 28.1655C37.609 28.1655 37.7965 28.094 37.9395 27.951L41.1287 24.7618C41.4147 24.4756 41.4147 24.012 41.1287 23.7259C40.8427 23.44 40.3789 23.44 40.093 23.7259L37.4216 26.3973L36.3448 25.3206C36.0588 25.0346 35.595 25.0346 35.3091 25.3206C35.023 25.6067 35.023 26.0704 35.3091 26.3564L36.9037 27.951C37.0467 28.094 37.2342 28.1655 37.4216 28.1655Z" fill="white"/>
</g>
<defs>
<clipPath id="clip0_219_26">
<rect width="50" height="50" fill="white"/>
</clipPath>
</defs>
</svg>
