<svg width="50" height="50" viewBox="0 0 50 50" fill="none" xmlns="http://www.w3.org/2000/svg">
<g clip-path="url(#clip0_219_19)">
<path d="M47.1495 32.9141V30.2257C47.1495 27.7188 45.11 25.6793 42.6031 25.6793H25.1912C24.7859 25.6793 24.4573 26.0078 24.4573 26.4132C24.4573 26.8186 24.7859 27.1471 25.1912 27.1471H42.6031C44.3008 27.1471 45.6818 28.5281 45.6818 30.2258V32.9142C44.0562 33.2537 42.8313 34.6978 42.8313 36.4227V39.1482H19.3833V36.4227C19.3833 34.6977 18.1584 33.2537 16.5328 32.9142V30.2258C16.5328 28.5281 17.914 27.1471 19.6115 27.1471H22.2559C22.6611 27.1471 22.9897 26.8186 22.9897 26.4132C22.9897 26.0078 22.6611 25.6793 22.2559 25.6793H19.6115C17.1046 25.6793 15.0651 27.7189 15.0651 30.2257V32.9141C13.4396 33.2536 12.2146 34.6977 12.2146 36.4226V46.8744C12.2146 47.2798 12.5431 47.6083 12.9484 47.6083H35.5834C35.9888 47.6083 36.3173 47.2798 36.3173 46.8744C36.3173 46.4691 35.9888 46.1406 35.5834 46.1406H19.3833V40.6157H42.8313V46.1406H38.5188C38.1134 46.1406 37.7849 46.4691 37.7849 46.8744C37.7849 47.2798 38.1134 47.6083 38.5188 47.6083H49.2662C49.6716 47.6083 50.0001 47.2798 50.0001 46.8744V36.4227C50 34.6977 48.7751 33.2537 47.1495 32.9141ZM13.6822 36.4227C13.6822 35.2556 14.6317 34.3061 15.7989 34.3061C16.9661 34.3061 17.9156 35.2556 17.9156 36.4227V46.1406H13.6822V36.4227ZM48.5323 46.1406H44.2989V36.4227C44.2989 35.2556 45.2484 34.3061 46.4156 34.3061C47.5827 34.3061 48.5322 35.2556 48.5322 36.4227V46.1406H48.5323Z" fill="white"/>
<path d="M18.6992 20.4425C18.735 20.8124 19.0574 21.1047 19.4295 21.1047H42.785C43.1842 21.1047 43.5189 20.77 43.5189 20.3708V3.12537C43.5189 2.72615 43.1843 2.39148 42.785 2.39148H38.5187C38.1134 2.39148 37.7849 2.72 37.7849 3.12537C37.7849 3.53074 38.1134 3.85925 38.5187 3.85925H41.0134L39.6548 5.21785H22.5597L21.2011 3.85925H35.5832C35.9886 3.85925 36.3171 3.53074 36.3171 3.12537C36.3171 2.72 35.9886 2.39148 35.5832 2.39148H19.4294C19.0299 2.39148 18.6955 2.72664 18.6955 3.12537V20.3708C18.6956 20.3944 18.6969 20.4189 18.6992 20.4425ZM21.2011 19.637L22.5597 18.2783H39.6547L41.0133 19.637H21.2011ZM39.2249 16.8105H32.5573L31.334 15.4517L35.3014 11.0449C35.5372 10.7827 35.9567 10.7865 36.1917 11.0474L39.2249 14.3842V16.8105ZM30.5823 16.8105H22.9896V16.2753L26.2013 12.7079C26.3829 12.5061 26.7072 12.506 26.8888 12.7079L30.5823 16.8105ZM42.0512 4.89714V18.599L40.6926 17.2404V6.25574L42.0512 4.89714ZM39.2249 12.2022L37.2802 10.0629C36.4721 9.16531 35.0186 9.16531 34.2105 10.0629L30.3465 14.3549L27.9796 11.7259C27.6141 11.3199 27.0913 11.0871 26.5451 11.0871C26.0024 11.0871 25.4735 11.3226 25.1104 11.7259L22.9896 14.0816V6.68552H39.2249V12.2022ZM21.5219 6.25574V17.2405L20.1633 18.5991V4.89714L21.5219 6.25574Z" fill="white"/>
<path d="M8.2708 43.4963H7.55078V18.098H9.43574V26.4014C9.43574 26.8068 9.76435 27.1353 10.1696 27.1353C10.5749 27.1353 10.9035 26.8068 10.9035 26.4014V18.098H12.9003C13.3641 18.098 13.7191 17.653 13.6157 17.2005L11.0423 5.94397C10.966 5.61028 10.6691 5.37366 10.3269 5.37366H3.30693C2.96464 5.37366 2.66777 5.61028 2.5915 5.94397L0.0180629 17.2005C-0.085355 17.653 0.269723 18.098 0.733493 18.098H6.0831V43.4962H5.36308C3.56103 43.4962 2.09502 44.9622 2.09502 46.7642V46.8744C2.09502 47.2798 2.42363 47.6083 2.8289 47.6083H10.805C11.2102 47.6083 11.5389 47.2798 11.5389 46.8744V46.7642C11.5388 44.9623 10.0728 43.4963 8.2708 43.4963ZM3.89199 6.84143H9.74189L11.9798 16.6303H1.654L3.89199 6.84143ZM3.67402 46.1406C3.92822 45.4544 4.58935 44.964 5.36298 44.964H8.2707C9.04433 44.964 9.70547 45.4543 9.95966 46.1406H3.67402Z" fill="white"/>
<path d="M30.3465 11.6312C31.4893 11.6312 32.4188 10.7015 32.4188 9.55881C32.4188 8.41604 31.4892 7.48645 30.3465 7.48645C29.2037 7.48645 28.2741 8.41614 28.2741 9.55881C28.2741 10.7015 29.2037 11.6312 30.3465 11.6312ZM30.3465 8.95413C30.6799 8.95413 30.9512 9.22542 30.9512 9.55881C30.9512 9.89221 30.6799 10.1635 30.3465 10.1635C30.0131 10.1635 29.7418 9.89221 29.7418 9.55881C29.7418 9.22532 30.0131 8.95413 30.3465 8.95413Z" fill="white"/>
</g>
<defs>
<clipPath id="clip0_219_19">
<rect width="50" height="50" fill="white"/>
</clipPath>
</defs>
</svg>
