<svg width="54" height="54" viewBox="0 0 54 54" fill="none" xmlns="http://www.w3.org/2000/svg">
<path d="M53.9304 42.2435L50.5223 48.2892H49.8778L43.695 37.3273L40.7784 42.5059L37.5655 48.2036L44.0151 48.2485L47.0511 53.6334L34.5506 53.5478L27.1138 53.4959L30.1273 48.1517L37.0459 35.8835L39.9625 30.7063L43.695 24.0896L47.4288 30.7063L53.9304 42.2435Z" fill="#292929"/>
<path d="M40.7493 18.5942L36.9981 25.2244V25.2314L34.0579 30.4217L24.0816 48.0498H24.076L21.0496 53.406L13.567 53.354L16.599 47.9978L30.3025 23.7845L33.2427 18.5942L30.222 13.2675L27.2874 18.4578L10.5915 47.9514H10.5859L7.55382 53.3132L0.0698242 53.2626L3.1075 47.9008L23.5306 11.8205L26.4722 6.63585V6.63023L30.2276 0L33.9774 6.63023L36.9981 11.9639L40.7493 18.5942Z" fill="#292929"/>
</svg>
