<svg width="812" height="122" viewBox="0 0 812 122" fill="none" xmlns="http://www.w3.org/2000/svg">
<path d="M208.433 31V8.6H211.537L225.233 26.936L224.721 27.224C224.636 26.6907 224.561 26.1147 224.497 25.496C224.433 24.856 224.369 24.184 224.305 23.48C224.262 22.7547 224.22 21.9973 224.177 21.208C224.156 20.3973 224.134 19.5547 224.113 18.68C224.092 17.8053 224.081 16.8987 224.081 15.96V8.6H227.537V31H224.369L210.897 13.336L211.249 12.888C211.356 14.1893 211.441 15.2987 211.505 16.216C211.59 17.112 211.654 17.88 211.697 18.52C211.761 19.1387 211.804 19.6507 211.825 20.056C211.846 20.44 211.857 20.76 211.857 21.016C211.878 21.272 211.889 21.496 211.889 21.688V31H208.433ZM238.864 31.32C237.669 31.32 236.624 31.0427 235.728 30.488C234.853 29.9333 234.171 29.1547 233.68 28.152C233.211 27.1493 232.976 25.9547 232.976 24.568V14.2H236.272V23.672C236.272 24.6533 236.421 25.5067 236.72 26.232C237.04 26.936 237.488 27.48 238.064 27.864C238.661 28.248 239.376 28.44 240.208 28.44C240.827 28.44 241.392 28.344 241.904 28.152C242.416 27.9387 242.853 27.6507 243.216 27.288C243.6 26.9253 243.899 26.488 244.112 25.976C244.325 25.464 244.432 24.9093 244.432 24.312V14.2H247.728V31H244.432V27.48L245.008 27.096C244.752 27.8853 244.315 28.6 243.696 29.24C243.099 29.88 242.384 30.392 241.552 30.776C240.72 31.1387 239.824 31.32 238.864 31.32ZM260.191 31.32C258.463 31.32 256.927 30.9573 255.583 30.232C254.26 29.4853 253.215 28.472 252.447 27.192C251.7 25.912 251.327 24.44 251.327 22.776C251.327 21.4533 251.54 20.248 251.967 19.16C252.394 18.072 252.98 17.1333 253.727 16.344C254.495 15.5333 255.402 14.9147 256.447 14.488C257.514 14.04 258.666 13.816 259.903 13.816C260.991 13.816 262.004 14.0293 262.943 14.456C263.882 14.8613 264.692 15.4267 265.375 16.152C266.079 16.8773 266.612 17.7413 266.975 18.744C267.359 19.7253 267.54 20.8027 267.519 21.976L267.487 23.384H253.759L253.023 20.76H264.639L264.159 21.304V20.536C264.095 19.832 263.86 19.2027 263.455 18.648C263.05 18.0933 262.538 17.656 261.919 17.336C261.3 17.016 260.628 16.856 259.903 16.856C258.751 16.856 257.78 17.08 256.991 17.528C256.202 17.9547 255.604 18.5947 255.199 19.448C254.794 20.28 254.591 21.3147 254.591 22.552C254.591 23.7253 254.836 24.7493 255.327 25.624C255.818 26.4773 256.511 27.1387 257.407 27.608C258.303 28.0773 259.338 28.312 260.511 28.312C261.343 28.312 262.111 28.1733 262.815 27.896C263.54 27.6187 264.319 27.1173 265.151 26.392L266.815 28.728C266.303 29.24 265.674 29.688 264.927 30.072C264.202 30.456 263.423 30.7653 262.591 31C261.78 31.2133 260.98 31.32 260.191 31.32ZM276.701 31.32C275.293 31.32 274.024 31.0747 272.893 30.584C271.762 30.0933 270.824 29.368 270.077 28.408L272.317 26.488C272.957 27.2347 273.65 27.7787 274.397 28.12C275.165 28.44 276.029 28.6 276.989 28.6C277.373 28.6 277.725 28.5573 278.045 28.472C278.386 28.3653 278.674 28.216 278.909 28.024C279.165 27.832 279.357 27.608 279.485 27.352C279.613 27.0747 279.677 26.776 279.677 26.456C279.677 25.9013 279.474 25.4533 279.069 25.112C278.856 24.9627 278.514 24.8027 278.045 24.632C277.597 24.44 277.01 24.248 276.285 24.056C275.048 23.736 274.034 23.3733 273.245 22.968C272.456 22.5627 271.848 22.104 271.421 21.592C271.101 21.1867 270.866 20.7493 270.717 20.28C270.568 19.7893 270.493 19.256 270.493 18.68C270.493 17.976 270.642 17.336 270.941 16.76C271.261 16.1627 271.688 15.6507 272.221 15.224C272.776 14.776 273.416 14.4347 274.141 14.2C274.888 13.9653 275.677 13.848 276.509 13.848C277.298 13.848 278.077 13.9547 278.845 14.168C279.634 14.3813 280.36 14.6907 281.021 15.096C281.682 15.5013 282.237 15.9813 282.685 16.536L280.797 18.616C280.392 18.2107 279.944 17.8587 279.453 17.56C278.984 17.24 278.504 16.9947 278.013 16.824C277.522 16.6533 277.074 16.568 276.669 16.568C276.221 16.568 275.816 16.6107 275.453 16.696C275.09 16.7813 274.781 16.9093 274.525 17.08C274.29 17.2507 274.109 17.464 273.981 17.72C273.853 17.976 273.789 18.264 273.789 18.584C273.81 18.8613 273.874 19.128 273.981 19.384C274.109 19.6187 274.28 19.8213 274.493 19.992C274.728 20.1627 275.08 20.344 275.549 20.536C276.018 20.728 276.616 20.9093 277.341 21.08C278.408 21.3573 279.282 21.6667 279.965 22.008C280.669 22.328 281.224 22.7013 281.629 23.128C282.056 23.5333 282.354 24.0027 282.525 24.536C282.696 25.0693 282.781 25.6667 282.781 26.328C282.781 27.288 282.504 28.152 281.949 28.92C281.416 29.6667 280.69 30.2533 279.773 30.68C278.856 31.1067 277.832 31.32 276.701 31.32ZM288.493 31V9.912H291.789V31H288.493ZM285.005 17.4V14.2H295.693V17.4H285.005ZM298.695 31V14.2H302.023V19.48L301.703 18.2C301.937 17.3893 302.332 16.6533 302.887 15.992C303.463 15.3307 304.113 14.808 304.839 14.424C305.585 14.04 306.353 13.848 307.143 13.848C307.505 13.848 307.847 13.88 308.167 13.944C308.508 14.008 308.775 14.0827 308.967 14.168L308.103 17.752C307.847 17.6453 307.559 17.56 307.239 17.496C306.94 17.4107 306.641 17.368 306.343 17.368C305.767 17.368 305.212 17.4853 304.679 17.72C304.167 17.9333 303.708 18.2427 303.303 18.648C302.919 19.032 302.609 19.4907 302.375 20.024C302.14 20.536 302.023 21.1013 302.023 21.72V31H298.695ZM318.434 31.32C316.791 31.32 315.319 30.9467 314.018 30.2C312.738 29.432 311.725 28.3973 310.978 27.096C310.231 25.7733 309.858 24.2693 309.858 22.584C309.858 20.8987 310.231 19.4053 310.978 18.104C311.725 16.7813 312.738 15.7467 314.018 15C315.319 14.232 316.791 13.848 318.434 13.848C320.055 13.848 321.506 14.232 322.786 15C324.087 15.7467 325.111 16.7813 325.858 18.104C326.605 19.4053 326.978 20.8987 326.978 22.584C326.978 24.2693 326.605 25.7733 325.858 27.096C325.111 28.3973 324.087 29.432 322.786 30.2C321.506 30.9467 320.055 31.32 318.434 31.32ZM318.434 28.312C319.437 28.312 320.333 28.0667 321.122 27.576C321.911 27.064 322.53 26.3813 322.978 25.528C323.426 24.6533 323.639 23.672 323.618 22.584C323.639 21.4747 323.426 20.4933 322.978 19.64C322.53 18.7653 321.911 18.0827 321.122 17.592C320.333 17.1013 319.437 16.856 318.434 16.856C317.431 16.856 316.525 17.112 315.714 17.624C314.925 18.1147 314.306 18.7973 313.858 19.672C313.41 20.5253 313.197 21.496 313.218 22.584C313.197 23.672 313.41 24.6533 313.858 25.528C314.306 26.3813 314.925 27.064 315.714 27.576C316.525 28.0667 317.431 28.312 318.434 28.312ZM345.138 31.32C343.73 31.32 342.461 31.0747 341.33 30.584C340.2 30.0933 339.261 29.368 338.514 28.408L340.754 26.488C341.394 27.2347 342.088 27.7787 342.834 28.12C343.602 28.44 344.466 28.6 345.426 28.6C345.81 28.6 346.162 28.5573 346.482 28.472C346.824 28.3653 347.112 28.216 347.346 28.024C347.602 27.832 347.794 27.608 347.922 27.352C348.05 27.0747 348.114 26.776 348.114 26.456C348.114 25.9013 347.912 25.4533 347.506 25.112C347.293 24.9627 346.952 24.8027 346.482 24.632C346.034 24.44 345.448 24.248 344.722 24.056C343.485 23.736 342.472 23.3733 341.682 22.968C340.893 22.5627 340.285 22.104 339.858 21.592C339.538 21.1867 339.304 20.7493 339.154 20.28C339.005 19.7893 338.93 19.256 338.93 18.68C338.93 17.976 339.08 17.336 339.378 16.76C339.698 16.1627 340.125 15.6507 340.658 15.224C341.213 14.776 341.853 14.4347 342.578 14.2C343.325 13.9653 344.114 13.848 344.946 13.848C345.736 13.848 346.514 13.9547 347.282 14.168C348.072 14.3813 348.797 14.6907 349.458 15.096C350.12 15.5013 350.674 15.9813 351.122 16.536L349.234 18.616C348.829 18.2107 348.381 17.8587 347.89 17.56C347.421 17.24 346.941 16.9947 346.45 16.824C345.96 16.6533 345.512 16.568 345.106 16.568C344.658 16.568 344.253 16.6107 343.89 16.696C343.528 16.7813 343.218 16.9093 342.962 17.08C342.728 17.2507 342.546 17.464 342.418 17.72C342.29 17.976 342.226 18.264 342.226 18.584C342.248 18.8613 342.312 19.128 342.418 19.384C342.546 19.6187 342.717 19.8213 342.93 19.992C343.165 20.1627 343.517 20.344 343.986 20.536C344.456 20.728 345.053 20.9093 345.778 21.08C346.845 21.3573 347.72 21.6667 348.402 22.008C349.106 22.328 349.661 22.7013 350.066 23.128C350.493 23.5333 350.792 24.0027 350.962 24.536C351.133 25.0693 351.218 25.6667 351.218 26.328C351.218 27.288 350.941 28.152 350.386 28.92C349.853 29.6667 349.128 30.2533 348.21 30.68C347.293 31.1067 346.269 31.32 345.138 31.32ZM362.691 31.32C360.963 31.32 359.427 30.9573 358.083 30.232C356.76 29.4853 355.715 28.472 354.947 27.192C354.2 25.912 353.827 24.44 353.827 22.776C353.827 21.4533 354.04 20.248 354.467 19.16C354.894 18.072 355.48 17.1333 356.227 16.344C356.995 15.5333 357.902 14.9147 358.947 14.488C360.014 14.04 361.166 13.816 362.403 13.816C363.491 13.816 364.504 14.0293 365.443 14.456C366.382 14.8613 367.192 15.4267 367.875 16.152C368.579 16.8773 369.112 17.7413 369.475 18.744C369.859 19.7253 370.04 20.8027 370.019 21.976L369.987 23.384H356.259L355.523 20.76H367.139L366.659 21.304V20.536C366.595 19.832 366.36 19.2027 365.955 18.648C365.55 18.0933 365.038 17.656 364.419 17.336C363.8 17.016 363.128 16.856 362.403 16.856C361.251 16.856 360.28 17.08 359.491 17.528C358.702 17.9547 358.104 18.5947 357.699 19.448C357.294 20.28 357.091 21.3147 357.091 22.552C357.091 23.7253 357.336 24.7493 357.827 25.624C358.318 26.4773 359.011 27.1387 359.907 27.608C360.803 28.0773 361.838 28.312 363.011 28.312C363.843 28.312 364.611 28.1733 365.315 27.896C366.04 27.6187 366.819 27.1173 367.651 26.392L369.315 28.728C368.803 29.24 368.174 29.688 367.427 30.072C366.702 30.456 365.923 30.7653 365.091 31C364.28 31.2133 363.48 31.32 362.691 31.32ZM380.965 38.36C379.77 38.36 378.575 38.168 377.381 37.784C376.207 37.4213 375.258 36.9413 374.533 36.344L375.749 33.784C376.175 34.104 376.677 34.3813 377.253 34.616C377.829 34.872 378.437 35.064 379.077 35.192C379.717 35.3413 380.346 35.416 380.965 35.416C382.138 35.416 383.119 35.224 383.909 34.84C384.698 34.456 385.295 33.8907 385.701 33.144C386.106 32.3973 386.309 31.4693 386.309 30.36V27.128L386.661 27.352C386.554 28.0133 386.202 28.6533 385.605 29.272C385.029 29.8693 384.303 30.36 383.429 30.744C382.554 31.128 381.658 31.32 380.741 31.32C379.141 31.32 377.711 30.9467 376.453 30.2C375.215 29.432 374.234 28.3973 373.509 27.096C372.783 25.7733 372.421 24.2693 372.421 22.584C372.421 20.8987 372.773 19.4053 373.477 18.104C374.202 16.7813 375.183 15.7467 376.421 15C377.679 14.232 379.087 13.848 380.645 13.848C381.285 13.848 381.903 13.9333 382.501 14.104C383.098 14.2533 383.653 14.4773 384.165 14.776C384.677 15.0533 385.135 15.3627 385.541 15.704C385.946 16.0453 386.277 16.408 386.533 16.792C386.789 17.176 386.949 17.5387 387.013 17.88L386.309 18.136V14.2H389.605V29.976C389.605 31.32 389.402 32.504 388.997 33.528C388.613 34.5733 388.047 35.448 387.301 36.152C386.554 36.8773 385.647 37.4213 384.581 37.784C383.514 38.168 382.309 38.36 380.965 38.36ZM381.093 28.28C382.138 28.28 383.066 28.0347 383.877 27.544C384.687 27.0533 385.317 26.3813 385.765 25.528C386.213 24.6747 386.437 23.6933 386.437 22.584C386.437 21.4747 386.202 20.4933 385.733 19.64C385.285 18.7653 384.655 18.0827 383.845 17.592C383.055 17.1013 382.138 16.856 381.093 16.856C380.069 16.856 379.151 17.112 378.341 17.624C377.551 18.1147 376.922 18.7973 376.453 19.672C376.005 20.5253 375.781 21.496 375.781 22.584C375.781 23.672 376.005 24.6533 376.453 25.528C376.922 26.3813 377.551 27.0533 378.341 27.544C379.151 28.0347 380.069 28.28 381.093 28.28ZM399.864 31.32C398.669 31.32 397.624 31.0427 396.728 30.488C395.853 29.9333 395.171 29.1547 394.68 28.152C394.211 27.1493 393.976 25.9547 393.976 24.568V14.2H397.272V23.672C397.272 24.6533 397.421 25.5067 397.72 26.232C398.04 26.936 398.488 27.48 399.064 27.864C399.661 28.248 400.376 28.44 401.208 28.44C401.827 28.44 402.392 28.344 402.904 28.152C403.416 27.9387 403.853 27.6507 404.216 27.288C404.6 26.9253 404.899 26.488 405.112 25.976C405.325 25.464 405.432 24.9093 405.432 24.312V14.2H408.728V31H405.432V27.48L406.008 27.096C405.752 27.8853 405.315 28.6 404.696 29.24C404.099 29.88 403.384 30.392 402.552 30.776C401.72 31.1387 400.824 31.32 399.864 31.32ZM413.351 31V14.2H416.647V17.656L416.071 18.04C416.284 17.2933 416.7 16.6107 417.319 15.992C417.938 15.352 418.674 14.84 419.527 14.456C420.38 14.0507 421.255 13.848 422.151 13.848C423.431 13.848 424.498 14.104 425.351 14.616C426.204 15.1067 426.844 15.864 427.271 16.888C427.698 17.912 427.911 19.2027 427.911 20.76V31H424.615V20.984C424.615 20.024 424.487 19.2347 424.231 18.616C423.975 17.976 423.58 17.5173 423.047 17.24C422.514 16.9413 421.852 16.8133 421.063 16.856C420.423 16.856 419.836 16.9627 419.303 17.176C418.77 17.368 418.3 17.6453 417.895 18.008C417.511 18.3707 417.202 18.7973 416.967 19.288C416.754 19.7573 416.647 20.2693 416.647 20.824V31H415.015C414.738 31 414.46 31 414.183 31C413.906 31 413.628 31 413.351 31ZM439.39 31.32C437.854 31.32 436.478 30.9467 435.262 30.2C434.067 29.432 433.118 28.3973 432.414 27.096C431.71 25.7733 431.358 24.2693 431.358 22.584C431.358 20.8987 431.699 19.4053 432.382 18.104C433.086 16.7813 434.035 15.7467 435.23 15C436.425 14.232 437.779 13.848 439.294 13.848C440.126 13.848 440.926 13.9867 441.694 14.264C442.483 14.52 443.187 14.8827 443.806 15.352C444.425 15.8 444.905 16.3013 445.246 16.856C445.609 17.3893 445.79 17.9333 445.79 18.488L444.83 18.552V7.32H448.126V31H444.83V27H445.47C445.47 27.512 445.299 28.024 444.958 28.536C444.617 29.0267 444.158 29.4853 443.582 29.912C443.027 30.3387 442.377 30.68 441.63 30.936C440.905 31.192 440.158 31.32 439.39 31.32ZM439.838 28.472C440.841 28.472 441.726 28.216 442.494 27.704C443.262 27.192 443.859 26.4987 444.286 25.624C444.734 24.728 444.958 23.7147 444.958 22.584C444.958 21.4533 444.734 20.4507 444.286 19.576C443.859 18.68 443.262 17.976 442.494 17.464C441.726 16.952 440.841 16.696 439.838 16.696C438.835 16.696 437.95 16.952 437.182 17.464C436.414 17.976 435.806 18.68 435.358 19.576C434.931 20.4507 434.718 21.4533 434.718 22.584C434.718 23.7147 434.931 24.728 435.358 25.624C435.806 26.4987 436.414 27.192 437.182 27.704C437.95 28.216 438.835 28.472 439.838 28.472ZM460.215 31.32C458.573 31.32 457.101 30.9467 455.799 30.2C454.519 29.432 453.506 28.3973 452.759 27.096C452.013 25.7733 451.639 24.2693 451.639 22.584C451.639 20.8987 452.013 19.4053 452.759 18.104C453.506 16.7813 454.519 15.7467 455.799 15C457.101 14.232 458.573 13.848 460.215 13.848C461.837 13.848 463.287 14.232 464.567 15C465.869 15.7467 466.893 16.7813 467.639 18.104C468.386 19.4053 468.759 20.8987 468.759 22.584C468.759 24.2693 468.386 25.7733 467.639 27.096C466.893 28.3973 465.869 29.432 464.567 30.2C463.287 30.9467 461.837 31.32 460.215 31.32ZM460.215 28.312C461.218 28.312 462.114 28.0667 462.903 27.576C463.693 27.064 464.311 26.3813 464.759 25.528C465.207 24.6533 465.421 23.672 465.399 22.584C465.421 21.4747 465.207 20.4933 464.759 19.64C464.311 18.7653 463.693 18.0827 462.903 17.592C462.114 17.1013 461.218 16.856 460.215 16.856C459.213 16.856 458.306 17.112 457.495 17.624C456.706 18.1147 456.087 18.7973 455.639 19.672C455.191 20.5253 454.978 21.496 454.999 22.584C454.978 23.672 455.191 24.6533 455.639 25.528C456.087 26.3813 456.706 27.064 457.495 27.576C458.306 28.0667 459.213 28.312 460.215 28.312ZM489.16 31.32C487.432 31.32 485.896 30.9573 484.552 30.232C483.229 29.4853 482.184 28.472 481.416 27.192C480.669 25.912 480.296 24.44 480.296 22.776C480.296 21.4533 480.509 20.248 480.936 19.16C481.362 18.072 481.949 17.1333 482.696 16.344C483.464 15.5333 484.37 14.9147 485.416 14.488C486.482 14.04 487.634 13.816 488.872 13.816C489.96 13.816 490.973 14.0293 491.912 14.456C492.85 14.8613 493.661 15.4267 494.344 16.152C495.048 16.8773 495.581 17.7413 495.944 18.744C496.328 19.7253 496.509 20.8027 496.488 21.976L496.456 23.384H482.728L481.992 20.76H493.608L493.128 21.304V20.536C493.064 19.832 492.829 19.2027 492.424 18.648C492.018 18.0933 491.506 17.656 490.888 17.336C490.269 17.016 489.597 16.856 488.872 16.856C487.72 16.856 486.749 17.08 485.96 17.528C485.17 17.9547 484.573 18.5947 484.168 19.448C483.762 20.28 483.56 21.3147 483.56 22.552C483.56 23.7253 483.805 24.7493 484.296 25.624C484.786 26.4773 485.48 27.1387 486.376 27.608C487.272 28.0773 488.306 28.312 489.48 28.312C490.312 28.312 491.08 28.1733 491.784 27.896C492.509 27.6187 493.288 27.1173 494.12 26.392L495.784 28.728C495.272 29.24 494.642 29.688 493.896 30.072C493.17 30.456 492.392 30.7653 491.56 31C490.749 31.2133 489.949 31.32 489.16 31.32ZM500.07 31V14.2H503.366V17.656L502.79 18.04C503.003 17.2933 503.419 16.6107 504.038 15.992C504.656 15.352 505.392 14.84 506.246 14.456C507.099 14.0507 507.974 13.848 508.87 13.848C510.15 13.848 511.216 14.104 512.07 14.616C512.923 15.1067 513.563 15.864 513.99 16.888C514.416 17.912 514.63 19.2027 514.63 20.76V31H511.334V20.984C511.334 20.024 511.206 19.2347 510.95 18.616C510.694 17.976 510.299 17.5173 509.766 17.24C509.232 16.9413 508.571 16.8133 507.782 16.856C507.142 16.856 506.555 16.9627 506.022 17.176C505.488 17.368 505.019 17.6453 504.614 18.008C504.23 18.3707 503.92 18.7973 503.686 19.288C503.472 19.7573 503.366 20.2693 503.366 20.824V31H501.734C501.456 31 501.179 31 500.902 31C500.624 31 500.347 31 500.07 31ZM520.925 31V12.312C520.925 11.352 521.138 10.4987 521.565 9.752C521.992 9.00533 522.578 8.41866 523.325 7.992C524.072 7.56533 524.936 7.352 525.917 7.352C526.6 7.352 527.24 7.48 527.837 7.736C528.434 7.992 528.914 8.33333 529.277 8.76L528.157 11.288C527.88 11.032 527.57 10.8293 527.229 10.68C526.909 10.5093 526.6 10.424 526.301 10.424C525.853 10.424 525.469 10.4987 525.149 10.648C524.85 10.776 524.626 10.9893 524.477 11.288C524.328 11.5653 524.253 11.9067 524.253 12.312V31H522.589C522.312 31 522.034 31 521.757 31C521.48 31 521.202 31 520.925 31ZM518.237 17.528V14.488H528.221V17.528H518.237ZM538.59 31.32C536.948 31.32 535.476 30.9467 534.174 30.2C532.894 29.432 531.881 28.3973 531.134 27.096C530.388 25.7733 530.014 24.2693 530.014 22.584C530.014 20.8987 530.388 19.4053 531.134 18.104C531.881 16.7813 532.894 15.7467 534.174 15C535.476 14.232 536.948 13.848 538.59 13.848C540.212 13.848 541.662 14.232 542.942 15C544.244 15.7467 545.268 16.7813 546.014 18.104C546.761 19.4053 547.134 20.8987 547.134 22.584C547.134 24.2693 546.761 25.7733 546.014 27.096C545.268 28.3973 544.244 29.432 542.942 30.2C541.662 30.9467 540.212 31.32 538.59 31.32ZM538.59 28.312C539.593 28.312 540.489 28.0667 541.278 27.576C542.068 27.064 542.686 26.3813 543.134 25.528C543.582 24.6533 543.796 23.672 543.774 22.584C543.796 21.4747 543.582 20.4933 543.134 19.64C542.686 18.7653 542.068 18.0827 541.278 17.592C540.489 17.1013 539.593 16.856 538.59 16.856C537.588 16.856 536.681 17.112 535.87 17.624C535.081 18.1147 534.462 18.7973 534.014 19.672C533.566 20.5253 533.353 21.496 533.374 22.584C533.353 23.672 533.566 24.6533 534.014 25.528C534.462 26.3813 535.081 27.064 535.87 27.576C536.681 28.0667 537.588 28.312 538.59 28.312ZM562.982 38.04V27H563.622C563.622 27.512 563.451 28.024 563.11 28.536C562.769 29.0267 562.31 29.4853 561.734 29.912C561.158 30.3387 560.518 30.68 559.814 30.936C559.11 31.192 558.385 31.32 557.638 31.32C556.123 31.32 554.769 30.9467 553.574 30.2C552.379 29.432 551.43 28.3973 550.726 27.096C550.043 25.7733 549.702 24.2693 549.702 22.584C549.702 20.8987 550.043 19.4053 550.726 18.104C551.409 16.7813 552.337 15.7467 553.51 15C554.705 14.232 556.049 13.848 557.542 13.848C558.374 13.848 559.163 13.9867 559.91 14.264C560.678 14.5413 561.361 14.904 561.958 15.352C562.577 15.8 563.057 16.3013 563.398 16.856C563.761 17.3893 563.942 17.9333 563.942 18.488L562.982 18.552V14.168H566.278V38.04H562.982ZM557.99 28.28C558.993 28.28 559.878 28.0347 560.646 27.544C561.414 27.0533 562.011 26.3813 562.438 25.528C562.886 24.6747 563.11 23.6933 563.11 22.584C563.11 21.4747 562.886 20.4933 562.438 19.64C562.011 18.7653 561.414 18.0827 560.646 17.592C559.878 17.1013 558.993 16.856 557.99 16.856C556.987 16.856 556.102 17.112 555.334 17.624C554.566 18.1147 553.958 18.7973 553.51 19.672C553.083 20.5253 552.87 21.496 552.87 22.584C552.87 23.672 553.083 24.6533 553.51 25.528C553.958 26.3813 554.566 27.0533 555.334 27.544C556.102 28.0347 556.987 28.28 557.99 28.28ZM576.77 31.32C575.575 31.32 574.53 31.0427 573.634 30.488C572.759 29.9333 572.077 29.1547 571.586 28.152C571.117 27.1493 570.882 25.9547 570.882 24.568V14.2H574.178V23.672C574.178 24.6533 574.327 25.5067 574.626 26.232C574.946 26.936 575.394 27.48 575.97 27.864C576.567 28.248 577.282 28.44 578.114 28.44C578.733 28.44 579.298 28.344 579.81 28.152C580.322 27.9387 580.759 27.6507 581.122 27.288C581.506 26.9253 581.805 26.488 582.018 25.976C582.231 25.464 582.338 24.9093 582.338 24.312V14.2H585.634V31H582.338V27.48L582.914 27.096C582.658 27.8853 582.221 28.6 581.602 29.24C581.005 29.88 580.29 30.392 579.458 30.776C578.626 31.1387 577.73 31.32 576.77 31.32ZM598.097 31.32C596.369 31.32 594.833 30.9573 593.489 30.232C592.166 29.4853 591.121 28.472 590.353 27.192C589.606 25.912 589.233 24.44 589.233 22.776C589.233 21.4533 589.446 20.248 589.873 19.16C590.3 18.072 590.886 17.1333 591.633 16.344C592.401 15.5333 593.308 14.9147 594.353 14.488C595.42 14.04 596.572 13.816 597.809 13.816C598.897 13.816 599.91 14.0293 600.849 14.456C601.788 14.8613 602.598 15.4267 603.281 16.152C603.985 16.8773 604.518 17.7413 604.881 18.744C605.265 19.7253 605.446 20.8027 605.425 21.976L605.393 23.384H591.665L590.929 20.76H602.545L602.065 21.304V20.536C602.001 19.832 601.766 19.2027 601.361 18.648C600.956 18.0933 600.444 17.656 599.825 17.336C599.206 17.016 598.534 16.856 597.809 16.856C596.657 16.856 595.686 17.08 594.897 17.528C594.108 17.9547 593.51 18.5947 593.105 19.448C592.7 20.28 592.497 21.3147 592.497 22.552C592.497 23.7253 592.742 24.7493 593.233 25.624C593.724 26.4773 594.417 27.1387 595.313 27.608C596.209 28.0773 597.244 28.312 598.417 28.312C599.249 28.312 600.017 28.1733 600.721 27.896C601.446 27.6187 602.225 27.1173 603.057 26.392L604.721 28.728C604.209 29.24 603.58 29.688 602.833 30.072C602.108 30.456 601.329 30.7653 600.497 31C599.686 31.2133 598.886 31.32 598.097 31.32Z" fill="white"/>
<path d="M115.744 95.9C113.404 95.9 111.484 95.24 109.984 93.92C108.484 92.6 107.734 90.53 107.734 87.71C107.734 85.43 108.184 83.03 109.084 80.51C109.984 77.99 111.334 75.53 113.134 73.13C117.034 67.97 121.084 65.39 125.284 65.39C129.184 65.39 131.134 67.16 131.134 70.7C131.134 72.02 130.714 73.46 129.874 75.02C128.854 76.76 127.744 77.63 126.544 77.63C125.644 77.63 125.194 77.27 125.194 76.55C125.194 75.77 126.004 74.81 127.624 73.67C129.244 72.47 130.054 71.12 130.054 69.62C130.054 67.58 129.004 66.56 126.904 66.56C124.684 66.56 122.224 68.18 119.524 71.42C117.604 73.82 115.984 76.4 114.664 79.16C114.064 80.36 113.464 81.95 112.864 83.93C112.264 85.85 111.964 87.71 111.964 89.51C111.964 91.01 112.294 92.3 112.954 93.38C113.614 94.46 114.784 95 116.464 95C118.024 95 119.644 94.58 121.324 93.74C123.004 92.84 124.444 91.79 125.644 90.59C126.664 89.57 127.804 88.19 129.064 86.45C130.384 84.65 131.704 82.46 133.024 79.88C133.204 79.58 133.384 79.43 133.564 79.43C133.924 79.43 133.924 79.73 133.564 80.33C132.544 82.37 131.434 84.32 130.234 86.18C129.094 88.04 127.564 89.84 125.644 91.58C124.504 92.72 123.064 93.74 121.324 94.64C119.584 95.48 117.724 95.9 115.744 95.9ZM140.119 95.81C137.479 95.81 135.469 94.67 134.089 92.39C132.829 90.47 132.199 88.13 132.199 85.37C132.199 80.63 133.699 76.22 136.699 72.14C139.999 67.7 143.959 65.48 148.579 65.48C150.919 65.48 152.719 66.29 153.979 67.91C155.179 69.47 155.779 71.45 155.779 73.85C155.779 74.93 155.659 76.04 155.419 77.18C155.239 78.32 154.939 79.52 154.519 80.78C153.619 83.42 152.509 85.49 151.189 86.99L151.369 87.26C151.969 87.68 152.689 87.89 153.529 87.89C155.269 87.89 156.739 87.32 157.939 86.18C159.139 85.04 160.489 83 161.989 80.06C162.049 79.82 162.169 79.7 162.349 79.7C162.469 79.7 162.559 79.79 162.619 79.97C162.679 80.09 162.649 80.27 162.529 80.51C161.269 83.15 159.919 85.16 158.479 86.54C157.099 87.92 155.479 88.61 153.619 88.61C152.419 88.61 151.489 88.28 150.829 87.62C150.229 88.7 149.569 89.72 148.849 90.68C148.129 91.58 147.319 92.39 146.419 93.11C144.379 94.91 142.279 95.81 140.119 95.81ZM140.749 95.09C143.929 95.09 147.049 92.66 150.109 87.8C150.109 87.62 150.199 87.44 150.379 87.26C149.299 85.46 148.759 83.75 148.759 82.13C148.759 82.07 148.759 81.95 148.759 81.77C148.759 81.53 148.789 81.23 148.849 80.87C148.909 80.21 149.029 79.55 149.209 78.89C149.389 78.17 149.689 77.51 150.109 76.91C151.009 75.47 152.089 74.75 153.349 74.75H154.159C154.399 74.81 154.579 74.84 154.699 74.84C154.819 74.84 154.909 74.84 154.969 74.84C154.969 69.44 153.259 66.74 149.839 66.74C146.959 66.74 144.229 68.48 141.649 71.96C139.549 74.72 138.049 77.81 137.149 81.23C136.609 83.09 136.339 85.04 136.339 87.08C136.339 92.42 137.809 95.09 140.749 95.09ZM154.451 98.06L154.361 97.88C156.521 93.2 159.311 86.72 162.731 78.44C163.271 77.06 163.901 75.35 164.621 73.31C165.401 71.27 166.271 68.9 167.231 66.2H167.411C168.011 66.68 168.521 66.92 168.941 66.92C170.441 66.92 171.851 65.63 173.171 63.05V63.14C173.171 63.26 171.851 66.47 169.211 72.77C167.771 76.19 166.691 78.8 165.971 80.6C165.251 82.4 164.831 83.42 164.711 83.66C171.551 71.36 177.011 65.21 181.091 65.21C181.991 65.21 182.801 65.51 183.521 66.11C184.241 66.71 184.601 67.49 184.601 68.45C184.601 70.97 182.891 75.11 179.471 80.87C176.051 86.63 174.341 90.56 174.341 92.66C174.341 93.44 174.641 94.04 175.241 94.46C175.841 94.88 176.561 95.09 177.401 95.09C178.241 95.09 179.111 94.91 180.011 94.55C180.911 94.19 181.661 93.8 182.261 93.38C183.881 92.12 185.261 90.65 186.401 88.97C187.541 87.29 188.531 85.61 189.371 83.93C190.211 82.25 190.961 80.84 191.621 79.7C191.801 79.4 191.981 79.31 192.161 79.43C192.341 79.49 192.371 79.67 192.251 79.97C191.051 82.49 189.731 85.07 188.291 87.71C186.851 90.35 185.021 92.45 182.801 94.01C182.021 94.55 181.151 95 180.191 95.36C179.291 95.72 178.331 95.9 177.311 95.9C175.631 95.9 174.251 95.45 173.171 94.55C172.151 93.65 171.641 92.27 171.641 90.41C171.641 87.17 173.141 83.09 176.141 78.17C179.201 73.13 180.731 69.95 180.731 68.63C180.731 67.61 180.161 67.1 179.021 67.1H178.481C177.161 67.1 175.361 68.63 173.081 71.69C170.801 74.69 168.041 79.13 164.801 85.01C164.021 86.33 163.211 87.86 162.371 89.6C161.591 91.28 160.751 93.17 159.851 95.27L159.671 95.36C158.951 95 158.321 94.82 157.781 94.82C157.001 94.82 156.341 95.3 155.801 96.26C155.321 97.28 154.871 97.88 154.451 98.06ZM211.724 95.9C208.784 95.9 206.744 95.09 205.604 93.47C204.464 91.79 203.894 89.45 203.894 86.45C203.894 82.13 205.694 77.63 209.294 72.95C213.134 68.03 217.124 65.57 221.264 65.57C224.324 65.57 225.854 66.62 225.854 68.72C225.854 71.3 224.444 74 221.624 76.82C217.604 80.9 213.374 82.94 208.934 82.94C208.214 84.8 207.854 86.66 207.854 88.52C207.854 90.56 208.244 92.15 209.024 93.29C209.804 94.43 210.944 95 212.444 95C214.004 95 215.624 94.58 217.304 93.74C218.984 92.84 220.424 91.79 221.624 90.59C222.644 89.57 223.784 88.19 225.044 86.45C226.364 84.65 227.684 82.46 229.004 79.88C229.184 79.58 229.364 79.43 229.544 79.43C229.904 79.43 229.904 79.73 229.544 80.33C228.524 82.37 227.414 84.32 226.214 86.18C225.074 88.04 223.544 89.84 221.624 91.58C220.484 92.72 219.044 93.74 217.304 94.64C215.564 95.48 213.704 95.9 211.724 95.9ZM209.024 82.31C212.324 82.31 216.014 80.54 220.094 77V76.91C221.234 75.95 222.314 74.63 223.334 72.95C224.534 71.09 225.134 69.5 225.134 68.18C225.134 67.22 224.414 66.74 222.974 66.74C220.694 66.74 217.934 68.78 214.694 72.86C213.194 74.66 211.994 76.34 211.094 77.9C210.194 79.46 209.504 80.93 209.024 82.31ZM234.925 95.72C230.065 95.72 227.635 92.51 227.635 86.09C227.635 82.25 228.475 77.78 230.155 72.68C230.935 70.34 231.775 68.09 232.675 65.93C233.575 63.77 234.535 61.76 235.555 59.9C236.815 57.62 238.135 55.46 239.515 53.42C240.895 51.32 242.365 49.34 243.925 47.48C248.425 41.9 252.265 39.11 255.445 39.11C256.765 39.11 257.425 39.74 257.425 41C257.425 42.68 256.735 45.26 255.355 48.74C250.735 60.2 243.235 70.64 232.855 80.06C231.835 83.84 231.325 86.87 231.325 89.15C231.325 93.05 232.555 95 235.015 95C235.855 95 236.665 94.85 237.445 94.55C238.225 94.19 238.915 93.8 239.515 93.38C241.135 92.12 242.515 90.65 243.655 88.97C244.795 87.29 245.785 85.61 246.625 83.93C247.465 82.25 248.215 80.84 248.875 79.7C249.055 79.4 249.235 79.31 249.415 79.43C249.595 79.49 249.625 79.67 249.505 79.97C248.305 82.49 246.985 85.07 245.545 87.71C244.105 90.35 242.275 92.45 240.055 94.01C238.435 95.15 236.725 95.72 234.925 95.72ZM233.125 79.16C234.325 78.14 235.585 76.88 236.905 75.38C238.225 73.88 239.635 72.17 241.135 70.25C242.635 68.33 244.165 66.2 245.725 63.86C247.285 61.52 248.845 59 250.405 56.3C254.605 49.16 256.705 44.18 256.705 41.36C256.705 40.34 256.375 39.83 255.715 39.83C253.495 39.83 249.535 44.6 243.835 54.14C242.335 56.84 240.985 59.45 239.785 61.97C238.345 65.15 237.055 68.18 235.915 71.06C234.835 73.88 233.905 76.58 233.125 79.16ZM254.179 97.16L253.999 96.98C255.739 93.98 257.419 90.89 259.039 87.71C260.659 84.53 262.309 81.26 263.989 77.9C264.649 76.58 265.429 74.93 266.329 72.95C267.289 70.97 268.369 68.66 269.569 66.02H269.749C270.169 66.32 270.649 66.47 271.189 66.47C272.449 66.47 273.829 65.9 275.329 64.76L275.509 64.58L275.419 64.76H275.329C274.909 65.6 274.129 67.07 272.989 69.17C271.909 71.21 270.499 73.91 268.759 77.27C273.679 69.47 277.789 65.57 281.089 65.57C283.309 65.57 284.419 66.62 284.419 68.72C284.419 70.46 283.669 73.01 282.169 76.37C283.429 74.63 284.479 73.22 285.319 72.14C286.159 71 286.789 70.22 287.209 69.8C289.729 67.1 291.979 65.75 293.959 65.75C296.539 65.75 297.829 67.01 297.829 69.53C297.829 71.39 297.349 73.28 296.389 75.2C295.489 77.06 294.409 78.95 293.149 80.87C291.889 82.73 290.749 84.59 289.729 86.45C289.249 87.41 288.799 88.43 288.379 89.51C288.019 90.53 287.839 91.46 287.839 92.3C287.839 93.08 288.079 93.74 288.559 94.28C289.039 94.76 289.849 95 290.989 95C291.829 95 292.639 94.85 293.419 94.55C294.199 94.19 294.889 93.8 295.489 93.38C297.109 92.12 298.489 90.65 299.629 88.97C300.769 87.29 301.759 85.61 302.599 83.93C303.439 82.25 304.189 80.84 304.849 79.7C305.029 79.4 305.209 79.31 305.389 79.43C305.569 79.49 305.599 79.67 305.479 79.97C304.279 82.49 302.959 85.07 301.519 87.71C300.079 90.35 298.249 92.45 296.029 94.01C295.249 94.55 294.379 95 293.419 95.36C292.519 95.72 291.559 95.9 290.539 95.9C288.439 95.9 286.909 95.45 285.949 94.55C285.049 93.59 284.599 92.36 284.599 90.86C284.599 89.78 284.839 88.46 285.319 86.9C285.679 85.82 286.129 84.68 286.669 83.48C287.269 82.22 288.019 80.87 288.919 79.43C292.099 74.15 293.689 70.73 293.689 69.17C293.689 68.15 293.239 67.64 292.339 67.64C289.819 67.64 286.159 71.57 281.359 79.43C279.859 81.83 278.419 84.35 277.039 86.99C275.659 89.57 274.279 92.27 272.899 95.09H272.719C272.299 94.97 271.909 94.88 271.549 94.82C271.189 94.76 270.859 94.73 270.559 94.73C268.759 94.73 267.679 95.36 267.319 96.62L267.049 96.44C269.329 92.48 271.129 89.33 272.449 86.99C273.769 84.65 274.639 83.12 275.059 82.4C278.899 75.08 280.819 70.4 280.819 68.36C280.819 67.46 280.489 67.01 279.829 67.01C277.369 67.01 273.679 71.03 268.759 79.07C265.519 84.29 262.609 89.66 260.029 95.18L259.849 95.27C259.069 94.97 258.379 94.82 257.779 94.82C256.759 94.82 255.919 95.21 255.259 95.99C254.659 96.77 254.299 97.16 254.179 97.16ZM318.697 60.8C316.777 60.8 315.817 59.87 315.817 58.01C315.817 55.97 316.747 54.95 318.607 54.95C320.527 54.95 321.487 55.88 321.487 57.74C321.487 59.78 320.557 60.8 318.697 60.8ZM308.077 95.9C304.117 95.9 302.137 93.71 302.137 89.33C302.137 86.15 303.067 82.79 304.927 79.25L311.677 66.02H311.947C312.127 66.26 312.487 66.38 313.027 66.38C314.167 66.38 315.667 65.69 317.527 64.31L317.707 64.49L310.057 79.34C306.877 85.46 305.287 89.72 305.287 92.12C305.287 93.2 305.587 93.95 306.187 94.37C306.787 94.79 307.477 95 308.257 95C309.097 95 309.907 94.82 310.687 94.46C311.527 94.1 312.247 93.71 312.847 93.29C314.467 92.03 315.817 90.59 316.897 88.97C318.037 87.29 319.027 85.61 319.867 83.93C320.707 82.25 321.457 80.84 322.117 79.7C322.297 79.4 322.477 79.31 322.657 79.43C322.837 79.49 322.867 79.67 322.747 79.97C321.547 82.49 320.227 85.07 318.787 87.71C317.347 90.35 315.517 92.45 313.297 94.01C312.517 94.55 311.677 95 310.777 95.36C309.937 95.72 309.037 95.9 308.077 95.9ZM327.462 96.08C321.402 96.08 318.372 93.2 318.372 87.44C318.372 85.82 318.642 84.08 319.182 82.22V82.31C319.482 81.23 320.052 80.18 320.892 79.16C321.912 77.9 322.842 77.27 323.682 77.27C323.682 77.27 323.772 77.27 323.952 77.27C324.132 77.27 324.432 77.33 324.852 77.45L325.842 75.92C326.682 74.66 327.432 73.4 328.092 72.14C328.812 70.82 329.562 69.53 330.342 68.27C332.562 64.43 334.242 62.36 335.382 62.06C335.742 61.94 336.012 61.88 336.192 61.88C337.092 61.88 337.542 62.21 337.542 62.87C337.542 63.65 336.882 64.13 335.562 64.31C334.362 64.49 333.612 64.64 333.312 64.76C332.832 65.12 332.592 65.9 332.592 67.1C332.592 68.36 333.402 70.49 335.022 73.49C336.642 76.43 337.452 79.04 337.452 81.32C337.452 81.92 337.392 82.49 337.272 83.03C337.212 83.57 337.122 84.14 337.002 84.74C335.382 91.52 331.092 94.91 324.132 94.91C325.512 95.21 326.772 95.36 327.912 95.36C330.012 95.36 332.052 95 334.032 94.28C336.012 93.5 337.842 92.45 339.522 91.13C341.262 89.75 342.852 88.1 344.292 86.18C345.792 84.2 347.082 82.1 348.162 79.88C348.342 79.52 348.522 79.34 348.702 79.34C349.062 79.34 349.092 79.64 348.792 80.24C347.832 82.04 346.812 83.75 345.732 85.37C344.712 86.93 343.602 88.34 342.402 89.6C340.962 91.04 339.012 92.48 336.552 93.92C334.092 95.36 331.062 96.08 327.462 96.08ZM323.502 94.19C326.562 94.19 329.082 91.88 331.062 87.26C332.682 83.66 333.492 80.03 333.492 76.37C333.492 75.89 333.402 75.26 333.222 74.48C333.102 73.64 332.892 72.65 332.592 71.51C332.352 70.43 332.172 69.5 332.052 68.72C331.932 67.88 331.902 67.16 331.962 66.56C330.822 68.84 329.682 70.91 328.542 72.77C327.402 74.63 326.322 76.31 325.302 77.81C325.602 78.29 325.752 78.77 325.752 79.25C325.752 80.09 325.422 81.02 324.762 82.04C324.342 82.64 323.622 83.21 322.602 83.75C321.582 84.29 320.862 84.8 320.442 85.28C319.782 86.24 319.452 87.5 319.452 89.06C319.452 92.48 320.802 94.19 323.502 94.19ZM337.148 97.16L336.968 96.98C338.708 93.98 340.388 90.89 342.008 87.71C343.628 84.53 345.278 81.26 346.958 77.9C347.618 76.58 348.398 74.93 349.298 72.95C350.258 70.97 351.338 68.66 352.538 66.02H352.718C353.138 66.32 353.618 66.47 354.158 66.47C355.418 66.47 356.798 65.9 358.298 64.76L358.478 64.58L358.388 64.76H358.298C357.878 65.6 357.098 67.07 355.958 69.17C354.878 71.21 353.468 73.91 351.728 77.27C356.648 69.47 360.758 65.57 364.058 65.57C366.278 65.57 367.388 66.62 367.388 68.72C367.388 70.46 366.638 73.01 365.138 76.37C366.398 74.63 367.448 73.22 368.288 72.14C369.128 71 369.758 70.22 370.178 69.8C372.698 67.1 374.948 65.75 376.928 65.75C379.508 65.75 380.798 67.01 380.798 69.53C380.798 71.39 380.318 73.28 379.358 75.2C378.458 77.06 377.378 78.95 376.118 80.87C374.858 82.73 373.718 84.59 372.698 86.45C372.218 87.41 371.768 88.43 371.348 89.51C370.988 90.53 370.808 91.46 370.808 92.3C370.808 93.08 371.048 93.74 371.528 94.28C372.008 94.76 372.818 95 373.958 95C374.798 95 375.608 94.85 376.388 94.55C377.168 94.19 377.858 93.8 378.458 93.38C380.078 92.12 381.458 90.65 382.598 88.97C383.738 87.29 384.728 85.61 385.568 83.93C386.408 82.25 387.158 80.84 387.818 79.7C387.998 79.4 388.178 79.31 388.358 79.43C388.538 79.49 388.568 79.67 388.448 79.97C387.248 82.49 385.928 85.07 384.488 87.71C383.048 90.35 381.218 92.45 378.998 94.01C378.218 94.55 377.348 95 376.388 95.36C375.488 95.72 374.528 95.9 373.508 95.9C371.408 95.9 369.878 95.45 368.918 94.55C368.018 93.59 367.568 92.36 367.568 90.86C367.568 89.78 367.808 88.46 368.288 86.9C368.648 85.82 369.098 84.68 369.638 83.48C370.238 82.22 370.988 80.87 371.888 79.43C375.068 74.15 376.658 70.73 376.658 69.17C376.658 68.15 376.208 67.64 375.308 67.64C372.788 67.64 369.128 71.57 364.328 79.43C362.828 81.83 361.388 84.35 360.008 86.99C358.628 89.57 357.248 92.27 355.868 95.09H355.688C355.268 94.97 354.878 94.88 354.518 94.82C354.158 94.76 353.828 94.73 353.528 94.73C351.728 94.73 350.648 95.36 350.288 96.62L350.018 96.44C352.298 92.48 354.098 89.33 355.418 86.99C356.738 84.65 357.608 83.12 358.028 82.4C361.868 75.08 363.788 70.4 363.788 68.36C363.788 67.46 363.458 67.01 362.798 67.01C360.338 67.01 356.648 71.03 351.728 79.07C348.488 84.29 345.578 89.66 342.998 95.18L342.818 95.27C342.038 94.97 341.348 94.82 340.748 94.82C339.728 94.82 338.888 95.21 338.228 95.99C337.628 96.77 337.268 97.16 337.148 97.16ZM394.826 95.81C392.186 95.81 390.176 94.67 388.796 92.39C387.536 90.47 386.906 88.13 386.906 85.37C386.906 80.63 388.406 76.22 391.406 72.14C394.706 67.7 398.666 65.48 403.286 65.48C405.626 65.48 407.426 66.29 408.686 67.91C409.886 69.47 410.486 71.45 410.486 73.85C410.486 74.93 410.366 76.04 410.126 77.18C409.946 78.32 409.646 79.52 409.226 80.78C408.326 83.42 407.216 85.49 405.896 86.99L406.076 87.26C406.676 87.68 407.396 87.89 408.236 87.89C409.976 87.89 411.446 87.32 412.646 86.18C413.846 85.04 415.196 83 416.696 80.06C416.756 79.82 416.876 79.7 417.056 79.7C417.176 79.7 417.266 79.79 417.326 79.97C417.386 80.09 417.356 80.27 417.236 80.51C415.976 83.15 414.626 85.16 413.186 86.54C411.806 87.92 410.186 88.61 408.326 88.61C407.126 88.61 406.196 88.28 405.536 87.62C404.936 88.7 404.276 89.72 403.556 90.68C402.836 91.58 402.026 92.39 401.126 93.11C399.086 94.91 396.986 95.81 394.826 95.81ZM395.456 95.09C398.636 95.09 401.756 92.66 404.816 87.8C404.816 87.62 404.906 87.44 405.086 87.26C404.006 85.46 403.466 83.75 403.466 82.13C403.466 82.07 403.466 81.95 403.466 81.77C403.466 81.53 403.496 81.23 403.556 80.87C403.616 80.21 403.736 79.55 403.916 78.89C404.096 78.17 404.396 77.51 404.816 76.91C405.716 75.47 406.796 74.75 408.056 74.75H408.866C409.106 74.81 409.286 74.84 409.406 74.84C409.526 74.84 409.616 74.84 409.676 74.84C409.676 69.44 407.966 66.74 404.546 66.74C401.666 66.74 398.936 68.48 396.356 71.96C394.256 74.72 392.756 77.81 391.856 81.23C391.316 83.09 391.046 85.04 391.046 87.08C391.046 92.42 392.516 95.09 395.456 95.09ZM436.896 95.9C434.556 95.9 432.636 95.24 431.136 93.92C429.636 92.6 428.886 90.53 428.886 87.71C428.886 85.43 429.336 83.03 430.236 80.51C431.136 77.99 432.486 75.53 434.286 73.13C438.186 67.97 442.236 65.39 446.436 65.39C450.336 65.39 452.286 67.16 452.286 70.7C452.286 72.02 451.866 73.46 451.026 75.02C450.006 76.76 448.896 77.63 447.696 77.63C446.796 77.63 446.346 77.27 446.346 76.55C446.346 75.77 447.156 74.81 448.776 73.67C450.396 72.47 451.206 71.12 451.206 69.62C451.206 67.58 450.156 66.56 448.056 66.56C445.836 66.56 443.376 68.18 440.676 71.42C438.756 73.82 437.136 76.4 435.816 79.16C435.216 80.36 434.616 81.95 434.016 83.93C433.416 85.85 433.116 87.71 433.116 89.51C433.116 91.01 433.446 92.3 434.106 93.38C434.766 94.46 435.936 95 437.616 95C439.176 95 440.796 94.58 442.476 93.74C444.156 92.84 445.596 91.79 446.796 90.59C447.816 89.57 448.956 88.19 450.216 86.45C451.536 84.65 452.856 82.46 454.176 79.88C454.356 79.58 454.536 79.43 454.716 79.43C455.076 79.43 455.076 79.73 454.716 80.33C453.696 82.37 452.586 84.32 451.386 86.18C450.246 88.04 448.716 89.84 446.796 91.58C445.656 92.72 444.216 93.74 442.476 94.64C440.736 95.48 438.876 95.9 436.896 95.9ZM461.271 95.81C458.631 95.81 456.621 94.67 455.241 92.39C453.981 90.47 453.351 88.13 453.351 85.37C453.351 80.63 454.851 76.22 457.851 72.14C461.151 67.7 465.111 65.48 469.731 65.48C472.071 65.48 473.871 66.29 475.131 67.91C476.331 69.47 476.931 71.45 476.931 73.85C476.931 74.93 476.811 76.04 476.571 77.18C476.391 78.32 476.091 79.52 475.671 80.78C474.771 83.42 473.661 85.49 472.341 86.99L472.521 87.26C473.121 87.68 473.841 87.89 474.681 87.89C476.421 87.89 477.891 87.32 479.091 86.18C480.291 85.04 481.641 83 483.141 80.06C483.201 79.82 483.321 79.7 483.501 79.7C483.621 79.7 483.711 79.79 483.771 79.97C483.831 80.09 483.801 80.27 483.681 80.51C482.421 83.15 481.071 85.16 479.631 86.54C478.251 87.92 476.631 88.61 474.771 88.61C473.571 88.61 472.641 88.28 471.981 87.62C471.381 88.7 470.721 89.72 470.001 90.68C469.281 91.58 468.471 92.39 467.571 93.11C465.531 94.91 463.431 95.81 461.271 95.81ZM461.901 95.09C465.081 95.09 468.201 92.66 471.261 87.8C471.261 87.62 471.351 87.44 471.531 87.26C470.451 85.46 469.911 83.75 469.911 82.13C469.911 82.07 469.911 81.95 469.911 81.77C469.911 81.53 469.941 81.23 470.001 80.87C470.061 80.21 470.181 79.55 470.361 78.89C470.541 78.17 470.841 77.51 471.261 76.91C472.161 75.47 473.241 74.75 474.501 74.75H475.311C475.551 74.81 475.731 74.84 475.851 74.84C475.971 74.84 476.061 74.84 476.121 74.84C476.121 69.44 474.411 66.74 470.991 66.74C468.111 66.74 465.381 68.48 462.801 71.96C460.701 74.72 459.201 77.81 458.301 81.23C457.761 83.09 457.491 85.04 457.491 87.08C457.491 92.42 458.961 95.09 461.901 95.09ZM474.433 97.16L474.253 96.98C475.993 93.98 477.673 90.89 479.293 87.71C480.913 84.53 482.563 81.26 484.243 77.9C484.903 76.58 485.683 74.93 486.583 72.95C487.543 70.97 488.623 68.66 489.823 66.02H490.003C490.423 66.32 490.903 66.47 491.443 66.47C492.703 66.47 494.083 65.9 495.583 64.76L495.763 64.58L495.673 64.76H495.583C495.163 65.6 494.383 67.07 493.243 69.17C492.163 71.21 490.753 73.91 489.013 77.27C493.933 69.47 498.043 65.57 501.343 65.57C503.563 65.57 504.673 66.62 504.673 68.72C504.673 70.46 503.923 73.01 502.423 76.37C503.683 74.63 504.733 73.22 505.573 72.14C506.413 71 507.043 70.22 507.463 69.8C509.983 67.1 512.233 65.75 514.213 65.75C516.793 65.75 518.083 67.01 518.083 69.53C518.083 71.39 517.603 73.28 516.643 75.2C515.743 77.06 514.663 78.95 513.403 80.87C512.143 82.73 511.003 84.59 509.983 86.45C509.503 87.41 509.053 88.43 508.633 89.51C508.273 90.53 508.093 91.46 508.093 92.3C508.093 93.08 508.333 93.74 508.813 94.28C509.293 94.76 510.103 95 511.243 95C512.083 95 512.893 94.85 513.673 94.55C514.453 94.19 515.143 93.8 515.743 93.38C517.363 92.12 518.743 90.65 519.883 88.97C521.023 87.29 522.013 85.61 522.853 83.93C523.693 82.25 524.443 80.84 525.103 79.7C525.283 79.4 525.463 79.31 525.643 79.43C525.823 79.49 525.853 79.67 525.733 79.97C524.533 82.49 523.213 85.07 521.773 87.71C520.333 90.35 518.503 92.45 516.283 94.01C515.503 94.55 514.633 95 513.673 95.36C512.773 95.72 511.813 95.9 510.793 95.9C508.693 95.9 507.163 95.45 506.203 94.55C505.303 93.59 504.853 92.36 504.853 90.86C504.853 89.78 505.093 88.46 505.573 86.9C505.933 85.82 506.383 84.68 506.923 83.48C507.523 82.22 508.273 80.87 509.173 79.43C512.353 74.15 513.943 70.73 513.943 69.17C513.943 68.15 513.493 67.64 512.593 67.64C510.073 67.64 506.413 71.57 501.613 79.43C500.113 81.83 498.673 84.35 497.293 86.99C495.913 89.57 494.533 92.27 493.153 95.09H492.973C492.553 94.97 492.163 94.88 491.803 94.82C491.443 94.76 491.113 94.73 490.813 94.73C489.013 94.73 487.933 95.36 487.573 96.62L487.303 96.44C489.583 92.48 491.383 89.33 492.703 86.99C494.023 84.65 494.893 83.12 495.313 82.4C499.153 75.08 501.073 70.4 501.073 68.36C501.073 67.46 500.743 67.01 500.083 67.01C497.623 67.01 493.933 71.03 489.013 79.07C485.773 84.29 482.863 89.66 480.283 95.18L480.103 95.27C479.323 94.97 478.633 94.82 478.033 94.82C477.013 94.82 476.173 95.21 475.513 95.99C474.913 96.77 474.553 97.16 474.433 97.16ZM498.811 118.22C497.491 118.22 496.201 117.74 494.941 116.78C493.741 115.82 492.961 114.65 492.601 113.27L492.691 113.09L493.141 112.91H493.321C494.041 115.67 495.391 117.05 497.371 117.05C499.711 117.05 502.651 115.1 506.191 111.2C508.831 108.38 511.111 105.38 513.031 102.2C514.171 100.34 515.461 98.03 516.901 95.27C518.341 92.51 519.961 89.3 521.761 85.64C523.621 81.86 525.271 78.59 526.711 75.83C528.151 73.01 529.381 70.73 530.401 68.99C531.061 67.79 531.841 66.62 532.741 65.48C533.641 64.34 534.631 63.2 535.711 62.06C538.591 58.94 540.901 57.38 542.641 57.38C543.841 57.38 544.441 57.92 544.441 59C544.441 60.02 543.871 60.68 542.731 60.98L541.291 61.16C539.491 61.34 537.931 62 536.611 63.14C535.771 63.86 534.781 64.94 533.641 66.38C532.561 67.76 531.331 69.53 529.951 71.69C527.491 75.53 525.631 79.55 524.371 83.75C530.491 72.23 536.041 66.47 541.021 66.47C544.681 66.47 546.511 68.75 546.511 73.31C546.511 78.47 544.531 83.3 540.571 87.8C538.531 90.08 536.431 91.82 534.271 93.02C532.171 94.22 529.831 94.91 527.251 95.09C528.451 95.27 529.591 95.36 530.671 95.36C532.891 95.36 534.991 95 536.971 94.28C538.951 93.5 540.781 92.45 542.461 91.13C544.201 89.75 545.791 88.1 547.231 86.18C548.731 84.2 550.021 82.1 551.101 79.88C551.281 79.52 551.461 79.34 551.641 79.34C552.001 79.34 552.031 79.64 551.731 80.24C550.771 82.04 549.751 83.75 548.671 85.37C547.651 86.93 546.541 88.34 545.341 89.6C543.901 91.04 541.921 92.51 539.401 94.01C536.941 95.51 533.911 96.26 530.311 96.26C529.291 96.26 528.181 96.14 526.981 95.9C525.781 95.66 524.821 95.24 524.101 94.64C523.561 94.16 523.231 93.56 523.111 92.84C522.991 92.12 522.901 91.25 522.841 90.23C522.541 91.37 522.121 92.69 521.581 94.19C521.041 95.63 520.411 97.22 519.691 98.96C518.911 100.94 518.191 102.59 517.531 103.91C516.871 105.29 516.301 106.34 515.821 107.06C510.541 114.5 504.871 118.22 498.811 118.22ZM526.171 94.73C528.211 94.73 530.701 92.99 533.641 89.51C535.981 86.87 537.811 84.26 539.131 81.68C541.531 76.88 542.731 72.86 542.731 69.62C542.731 67.88 542.011 67.01 540.571 67.01C537.211 67.01 533.461 70.19 529.321 76.55C527.401 79.49 525.991 82.13 525.091 84.47C524.191 86.81 523.741 88.91 523.741 90.77C523.741 93.41 524.551 94.73 526.171 94.73ZM559.745 95.36C556.145 95.36 554.345 93.77 554.345 90.59C554.345 88.07 555.335 85.19 557.315 81.95C557.975 80.81 559.805 78.26 562.805 74.3C564.785 71.66 565.775 69.8 565.775 68.72C565.775 67.7 564.935 67.19 563.255 67.19C562.115 67.19 560.855 67.22 559.475 67.28C558.155 67.34 557.075 67.4 556.235 67.46C556.055 68.42 555.785 69.53 555.425 70.79C555.065 72.05 554.645 73.37 554.165 74.75C553.865 75.59 553.385 76.73 552.725 78.17C552.125 79.61 551.315 81.14 550.295 82.76C550.115 83 549.965 83.12 549.845 83.12C549.785 83.12 549.755 83.06 549.755 82.94C549.755 82.64 549.875 82.25 550.115 81.77C550.595 80.93 551.135 79.91 551.735 78.71C552.335 77.45 552.905 76.07 553.445 74.57C553.925 73.25 554.345 71.87 554.705 70.43C555.125 68.93 555.365 67.91 555.425 67.37C553.985 66.47 553.265 65.12 553.265 63.32C553.265 61.28 553.985 60.26 555.425 60.26C556.445 60.26 556.955 61.19 556.955 63.05C556.955 63.47 556.895 63.98 556.775 64.58C556.655 65.18 556.505 65.9 556.325 66.74C557.165 66.68 558.485 66.62 560.285 66.56C562.145 66.44 563.915 66.38 565.595 66.38C568.655 66.38 570.185 67.31 570.185 69.17C570.185 71.15 567.815 75.23 563.075 81.41C562.055 82.91 560.915 84.62 559.655 86.54C558.455 88.4 557.855 90.32 557.855 92.3C557.855 92.84 557.975 93.35 558.215 93.83C558.455 94.31 558.965 94.55 559.745 94.55C562.325 94.55 565.175 92.99 568.295 89.87C569.855 88.31 571.295 86.63 572.615 84.83C573.935 83.03 575.135 81.02 576.215 78.8C576.455 78.32 576.665 78.08 576.845 78.08C576.965 78.08 577.025 78.17 577.025 78.35C577.025 78.65 576.935 78.98 576.755 79.34C575.735 81.44 574.505 83.48 573.065 85.46C571.625 87.38 570.035 89.21 568.295 90.95C565.355 93.89 562.505 95.36 559.745 95.36ZM582.824 95.81C580.184 95.81 578.174 94.67 576.794 92.39C575.534 90.47 574.904 88.13 574.904 85.37C574.904 80.63 576.404 76.22 579.404 72.14C582.704 67.7 586.664 65.48 591.284 65.48C593.624 65.48 595.424 66.29 596.684 67.91C597.884 69.47 598.484 71.45 598.484 73.85C598.484 74.93 598.364 76.04 598.124 77.18C597.944 78.32 597.644 79.52 597.224 80.78C596.324 83.42 595.214 85.49 593.894 86.99L594.074 87.26C594.674 87.68 595.394 87.89 596.234 87.89C597.974 87.89 599.444 87.32 600.644 86.18C601.844 85.04 603.194 83 604.694 80.06C604.754 79.82 604.874 79.7 605.054 79.7C605.174 79.7 605.264 79.79 605.324 79.97C605.384 80.09 605.354 80.27 605.234 80.51C603.974 83.15 602.624 85.16 601.184 86.54C599.804 87.92 598.184 88.61 596.324 88.61C595.124 88.61 594.194 88.28 593.534 87.62C592.934 88.7 592.274 89.72 591.554 90.68C590.834 91.58 590.024 92.39 589.124 93.11C587.084 94.91 584.984 95.81 582.824 95.81ZM583.454 95.09C586.634 95.09 589.754 92.66 592.814 87.8C592.814 87.62 592.904 87.44 593.084 87.26C592.004 85.46 591.464 83.75 591.464 82.13C591.464 82.07 591.464 81.95 591.464 81.77C591.464 81.53 591.494 81.23 591.554 80.87C591.614 80.21 591.734 79.55 591.914 78.89C592.094 78.17 592.394 77.51 592.814 76.91C593.714 75.47 594.794 74.75 596.054 74.75H596.864C597.104 74.81 597.284 74.84 597.404 74.84C597.524 74.84 597.614 74.84 597.674 74.84C597.674 69.44 595.964 66.74 592.544 66.74C589.664 66.74 586.934 68.48 584.354 71.96C582.254 74.72 580.754 77.81 579.854 81.23C579.314 83.09 579.044 85.04 579.044 87.08C579.044 92.42 580.514 95.09 583.454 95.09ZM595.986 97.16L595.806 96.98C597.546 93.98 599.226 90.89 600.846 87.71C602.466 84.53 604.116 81.26 605.796 77.9C606.456 76.58 607.236 74.93 608.136 72.95C609.096 70.97 610.176 68.66 611.376 66.02H611.556C611.976 66.32 612.456 66.47 612.996 66.47C614.256 66.47 615.636 65.9 617.136 64.76L617.316 64.58L617.226 64.76H617.136C616.716 65.6 615.936 67.07 614.796 69.17C613.716 71.21 612.306 73.91 610.566 77.27C615.486 69.47 619.596 65.57 622.896 65.57C625.116 65.57 626.226 66.62 626.226 68.72C626.226 70.46 625.476 73.01 623.976 76.37C625.236 74.63 626.286 73.22 627.126 72.14C627.966 71 628.596 70.22 629.016 69.8C631.536 67.1 633.786 65.75 635.766 65.75C638.346 65.75 639.636 67.01 639.636 69.53C639.636 71.39 639.156 73.28 638.196 75.2C637.296 77.06 636.216 78.95 634.956 80.87C633.696 82.73 632.556 84.59 631.536 86.45C631.056 87.41 630.606 88.43 630.186 89.51C629.826 90.53 629.646 91.46 629.646 92.3C629.646 93.08 629.886 93.74 630.366 94.28C630.846 94.76 631.656 95 632.796 95C633.636 95 634.446 94.85 635.226 94.55C636.006 94.19 636.696 93.8 637.296 93.38C638.916 92.12 640.296 90.65 641.436 88.97C642.576 87.29 643.566 85.61 644.406 83.93C645.246 82.25 645.996 80.84 646.656 79.7C646.836 79.4 647.016 79.31 647.196 79.43C647.376 79.49 647.406 79.67 647.286 79.97C646.086 82.49 644.766 85.07 643.326 87.71C641.886 90.35 640.056 92.45 637.836 94.01C637.056 94.55 636.186 95 635.226 95.36C634.326 95.72 633.366 95.9 632.346 95.9C630.246 95.9 628.716 95.45 627.756 94.55C626.856 93.59 626.406 92.36 626.406 90.86C626.406 89.78 626.646 88.46 627.126 86.9C627.486 85.82 627.936 84.68 628.476 83.48C629.076 82.22 629.826 80.87 630.726 79.43C633.906 74.15 635.496 70.73 635.496 69.17C635.496 68.15 635.046 67.64 634.146 67.64C631.626 67.64 627.966 71.57 623.166 79.43C621.666 81.83 620.226 84.35 618.846 86.99C617.466 89.57 616.086 92.27 614.706 95.09H614.526C614.106 94.97 613.716 94.88 613.356 94.82C612.996 94.76 612.666 94.73 612.366 94.73C610.566 94.73 609.486 95.36 609.126 96.62L608.856 96.44C611.136 92.48 612.936 89.33 614.256 86.99C615.576 84.65 616.446 83.12 616.866 82.4C620.706 75.08 622.626 70.4 622.626 68.36C622.626 67.46 622.296 67.01 621.636 67.01C619.176 67.01 615.486 71.03 610.566 79.07C607.326 84.29 604.416 89.66 601.836 95.18L601.656 95.27C600.876 94.97 600.186 94.82 599.586 94.82C598.566 94.82 597.726 95.21 597.066 95.99C596.466 96.77 596.106 97.16 595.986 97.16ZM660.504 60.8C658.584 60.8 657.624 59.87 657.624 58.01C657.624 55.97 658.554 54.95 660.414 54.95C662.334 54.95 663.294 55.88 663.294 57.74C663.294 59.78 662.364 60.8 660.504 60.8ZM649.884 95.9C645.924 95.9 643.944 93.71 643.944 89.33C643.944 86.15 644.874 82.79 646.734 79.25L653.484 66.02H653.754C653.934 66.26 654.294 66.38 654.834 66.38C655.974 66.38 657.474 65.69 659.334 64.31L659.514 64.49L651.864 79.34C648.684 85.46 647.094 89.72 647.094 92.12C647.094 93.2 647.394 93.95 647.994 94.37C648.594 94.79 649.284 95 650.064 95C650.904 95 651.714 94.82 652.494 94.46C653.334 94.1 654.054 93.71 654.654 93.29C656.274 92.03 657.624 90.59 658.704 88.97C659.844 87.29 660.834 85.61 661.674 83.93C662.514 82.25 663.264 80.84 663.924 79.7C664.104 79.4 664.284 79.31 664.464 79.43C664.644 79.49 664.674 79.67 664.554 79.97C663.354 82.49 662.034 85.07 660.594 87.71C659.154 90.35 657.324 92.45 655.104 94.01C654.324 94.55 653.484 95 652.584 95.36C651.744 95.72 650.844 95.9 649.884 95.9ZM669.268 96.08C663.208 96.08 660.178 93.2 660.178 87.44C660.178 85.82 660.448 84.08 660.988 82.22V82.31C661.288 81.23 661.858 80.18 662.698 79.16C663.718 77.9 664.648 77.27 665.488 77.27C665.488 77.27 665.578 77.27 665.758 77.27C665.938 77.27 666.238 77.33 666.658 77.45L667.648 75.92C668.488 74.66 669.238 73.4 669.898 72.14C670.618 70.82 671.368 69.53 672.148 68.27C674.368 64.43 676.048 62.36 677.188 62.06C677.548 61.94 677.818 61.88 677.998 61.88C678.898 61.88 679.348 62.21 679.348 62.87C679.348 63.65 678.688 64.13 677.368 64.31C676.168 64.49 675.418 64.64 675.118 64.76C674.638 65.12 674.398 65.9 674.398 67.1C674.398 68.36 675.208 70.49 676.828 73.49C678.448 76.43 679.258 79.04 679.258 81.32C679.258 81.92 679.198 82.49 679.078 83.03C679.018 83.57 678.928 84.14 678.808 84.74C677.188 91.52 672.898 94.91 665.938 94.91C667.318 95.21 668.578 95.36 669.718 95.36C671.818 95.36 673.858 95 675.838 94.28C677.818 93.5 679.648 92.45 681.328 91.13C683.068 89.75 684.658 88.1 686.098 86.18C687.598 84.2 688.888 82.1 689.968 79.88C690.148 79.52 690.328 79.34 690.508 79.34C690.868 79.34 690.898 79.64 690.598 80.24C689.638 82.04 688.618 83.75 687.538 85.37C686.518 86.93 685.408 88.34 684.208 89.6C682.768 91.04 680.818 92.48 678.358 93.92C675.898 95.36 672.868 96.08 669.268 96.08ZM665.308 94.19C668.368 94.19 670.888 91.88 672.868 87.26C674.488 83.66 675.298 80.03 675.298 76.37C675.298 75.89 675.208 75.26 675.028 74.48C674.908 73.64 674.698 72.65 674.398 71.51C674.158 70.43 673.978 69.5 673.858 68.72C673.738 67.88 673.708 67.16 673.768 66.56C672.628 68.84 671.488 70.91 670.348 72.77C669.208 74.63 668.128 76.31 667.108 77.81C667.408 78.29 667.558 78.77 667.558 79.25C667.558 80.09 667.228 81.02 666.568 82.04C666.148 82.64 665.428 83.21 664.408 83.75C663.388 84.29 662.668 84.8 662.248 85.28C661.588 86.24 661.258 87.5 661.258 89.06C661.258 92.48 662.608 94.19 665.308 94.19ZM694.885 95.81C692.245 95.81 690.235 94.67 688.855 92.39C687.595 90.47 686.965 88.13 686.965 85.37C686.965 80.63 688.465 76.22 691.465 72.14C694.765 67.7 698.725 65.48 703.345 65.48C705.685 65.48 707.485 66.29 708.745 67.91C709.945 69.47 710.545 71.45 710.545 73.85C710.545 74.93 710.425 76.04 710.185 77.18C710.005 78.32 709.705 79.52 709.285 80.78C708.385 83.42 707.275 85.49 705.955 86.99L706.135 87.26C706.735 87.68 707.455 87.89 708.295 87.89C710.035 87.89 711.505 87.32 712.705 86.18C713.905 85.04 715.255 83 716.755 80.06C716.815 79.82 716.935 79.7 717.115 79.7C717.235 79.7 717.325 79.79 717.385 79.97C717.445 80.09 717.415 80.27 717.295 80.51C716.035 83.15 714.685 85.16 713.245 86.54C711.865 87.92 710.245 88.61 708.385 88.61C707.185 88.61 706.255 88.28 705.595 87.62C704.995 88.7 704.335 89.72 703.615 90.68C702.895 91.58 702.085 92.39 701.185 93.11C699.145 94.91 697.045 95.81 694.885 95.81ZM695.515 95.09C698.695 95.09 701.815 92.66 704.875 87.8C704.875 87.62 704.965 87.44 705.145 87.26C704.065 85.46 703.525 83.75 703.525 82.13C703.525 82.07 703.525 81.95 703.525 81.77C703.525 81.53 703.555 81.23 703.615 80.87C703.675 80.21 703.795 79.55 703.975 78.89C704.155 78.17 704.455 77.51 704.875 76.91C705.775 75.47 706.855 74.75 708.115 74.75H708.925C709.165 74.81 709.345 74.84 709.465 74.84C709.585 74.84 709.675 74.84 709.735 74.84C709.735 69.44 708.025 66.74 704.605 66.74C701.725 66.74 698.995 68.48 696.415 71.96C694.315 74.72 692.815 77.81 691.915 81.23C691.375 83.09 691.105 85.04 691.105 87.08C691.105 92.42 692.575 95.09 695.515 95.09Z" fill="#EDC788"/>
</svg>
