<svg width="200" height="54" viewBox="0 0 200 54" fill="none" xmlns="http://www.w3.org/2000/svg">
<path d="M53.8605 42.2435L50.4525 48.2892H49.8079L43.6251 37.3272L40.7085 42.5058L37.4956 48.2036L43.9453 48.2485L46.9812 53.6333L34.4807 53.5478L27.0439 53.4958L30.0574 48.1517L36.976 35.8835L39.8926 30.7063L43.6251 24.0896L47.3589 30.7063L53.8605 42.2435Z" fill="#292929"/>
<path d="M40.6795 18.5942L36.9283 25.2244V25.2314L33.9881 30.4217L24.0118 48.0498H24.0062L20.9798 53.406L13.4972 53.354L16.5292 47.9978L30.2327 23.7845L33.1729 18.5942L30.1522 13.2675L27.2176 18.4578L10.5217 47.9514H10.516L7.484 53.3132L0 53.2626L3.03768 47.9008L23.4608 11.8205L26.4024 6.63585V6.63023L30.1578 0L33.9076 6.63023L36.9283 11.9639L40.6795 18.5942Z" fill="#292929"/>
<path d="M118.516 3.43323e-05H106.738L102.192 4.54523V17.4218L106.738 21.967H118.516L123.062 17.4218V4.55431L118.516 3.43323e-05ZM116.573 15.8946L115.21 17.2581H110.047L108.683 15.8946V6.08832L110.047 4.72476H115.21L116.573 6.08832V15.8946Z" fill="#292929"/>
<path d="M194.898 3.43323e-05H183.126L178.581 4.54523V17.4218L183.126 21.967H194.898L199.444 17.4218V4.55431L194.898 3.43323e-05ZM192.955 15.8946L191.592 17.2581H186.433L185.069 15.8946V6.08832L186.433 4.72476H191.599L192.962 6.08832L192.955 15.8946Z" fill="#292929"/>
<path d="M156.719 3.43323e-05H140.377V21.9851H156.719L161.264 17.4399V4.55431L156.719 3.43323e-05ZM154.773 15.8946L153.41 17.2581H146.876V4.72703H153.403L154.767 6.09059L154.773 15.8946Z" fill="#292929"/>
<path d="M78.3824 3.43323e-05V10.1949L70.9965 3.55437L67.0421 3.43323e-05H64.9991V21.9851H70.9965V10.8562L78.3824 17.4945L83.3776 21.9851H85.2684V3.43323e-05H78.3824Z" fill="#292929"/>
<path d="M86.8751 33.9231C87.7051 33.9041 88.5292 34.0665 89.2899 34.399C90.0506 34.7315 90.7296 35.226 91.2794 35.848C92.3173 36.9991 92.8842 38.4986 92.8674 40.0485C92.8505 41.5983 92.2512 43.0851 91.1885 44.2134C90.0704 45.4164 88.6311 46.0171 86.8706 46.0156C85.1101 46.0141 83.6707 45.4134 82.5526 44.2134C81.49 43.0869 80.8907 41.6015 80.8738 40.053C80.857 38.5045 81.4239 37.0065 82.4617 35.8571C83.0113 35.2317 83.6913 34.7345 84.4538 34.4003C85.2163 34.0662 86.0428 33.9033 86.8751 33.9231ZM86.8751 35.373C86.2789 35.3653 85.6878 35.4827 85.1398 35.7176C84.5917 35.9524 84.099 36.2996 83.6935 36.7366C83.2625 37.1691 82.923 37.6839 82.6954 38.2505C82.4677 38.817 82.3566 39.4237 82.3685 40.0341C82.3644 40.8485 82.5728 41.6498 82.9731 42.359C83.3528 43.0536 83.9176 43.6294 84.6048 44.0225C85.296 44.407 86.0739 44.6088 86.8649 44.6088C87.6558 44.6088 88.4337 44.407 89.125 44.0225C89.8121 43.6294 90.377 43.0536 90.7567 42.359C91.157 41.6498 91.3653 40.8485 91.3612 40.0341C91.3726 39.4233 91.2607 38.8165 91.0323 38.25C90.8039 37.6834 90.4636 37.1687 90.0317 36.7366C89.628 36.3027 89.1386 35.9574 88.5944 35.7227C88.0502 35.488 87.4632 35.3689 86.8706 35.373H86.8751Z" fill="#292929"/>
<path d="M96.47 34.214H97.9495V36.2752C98.4695 35.5503 99.1401 34.9464 99.9153 34.5049C100.635 34.114 101.444 33.9138 102.263 33.9231C103.074 33.9103 103.871 34.1389 104.551 34.5799C105.208 35.007 105.722 35.6213 106.026 36.3434C106.343 37.0843 106.501 38.2365 106.501 39.8V45.7088H105.022V40.2273C105.022 38.9016 104.967 38.0176 104.856 37.5752C104.739 36.9046 104.39 36.2965 103.87 35.8571C103.32 35.4523 102.649 35.2484 101.967 35.2798C101.085 35.2756 100.231 35.5913 99.563 36.1684C98.8726 36.7321 98.3811 37.5023 98.1608 38.366C98.0199 38.9357 97.9495 39.9788 97.9495 41.4954V45.7133H96.47V34.214Z" fill="#292929"/>
<path d="M121.698 36.6025L120.525 37.332C119.512 35.9851 118.129 35.3117 116.376 35.3117C115.733 35.2921 115.094 35.4018 114.494 35.634C113.895 35.8663 113.349 36.2165 112.887 36.6639C112.439 37.0841 112.084 37.5933 111.844 38.1588C111.604 38.7243 111.485 39.3336 111.494 39.9478C111.492 40.7786 111.712 41.5948 112.133 42.3113C112.546 43.0359 113.153 43.6315 113.885 44.0316C114.981 44.6107 116.245 44.7874 117.457 44.5307C118.67 44.2741 119.754 43.6005 120.521 42.6271L121.694 43.3976C121.142 44.2269 120.377 44.8926 119.48 45.3247C118.492 45.7931 117.408 46.0265 116.314 46.0065C114.496 46.0065 112.988 45.4285 111.79 44.2725C111.212 43.7347 110.754 43.0819 110.445 42.3562C110.136 41.6304 109.982 40.8479 109.994 40.0591C109.988 38.9679 110.278 37.8955 110.835 36.957C111.383 36.0126 112.183 35.2385 113.144 34.7208C114.155 34.1793 115.288 33.9054 116.435 33.9254C117.184 33.9232 117.928 34.0414 118.639 34.2754C119.286 34.4768 119.895 34.784 120.441 35.1844C120.948 35.5716 121.375 36.0532 121.698 36.6025Z" fill="#292929"/>
<path d="M135.088 41.8977L136.336 42.5522C135.983 43.2798 135.502 43.9386 134.918 44.4975C134.39 44.9888 133.773 45.3746 133.1 45.6338C132.372 45.9013 131.602 46.0322 130.827 46.0201C128.953 46.0201 127.486 45.405 126.427 44.1748C125.4 43.0302 124.833 41.5452 124.837 40.0069C124.821 38.5909 125.295 37.2131 126.18 36.1071C127.314 34.6556 128.834 33.9292 130.738 33.9277C132.699 33.9277 134.265 34.6716 135.436 36.1594C136.268 37.2093 136.69 38.5198 136.704 40.0909H126.368C126.397 41.4272 126.824 42.5219 127.65 43.3748C128.042 43.7902 128.517 44.1189 129.044 44.3396C129.571 44.5604 130.138 44.6684 130.709 44.6566C131.291 44.657 131.869 44.5539 132.416 44.3521C132.932 44.1699 133.411 43.895 133.829 43.5407C134.329 43.0598 134.754 42.5058 135.088 41.8977ZM135.088 38.8001C134.94 38.1155 134.646 37.4708 134.227 36.9093C133.823 36.4188 133.31 36.0296 132.729 35.773C132.116 35.4865 131.447 35.339 130.77 35.3412C129.697 35.3171 128.655 35.7041 127.857 36.423C127.263 36.9502 126.814 37.7426 126.511 38.8001H135.088Z" fill="#292929"/>
<path d="M140.356 34.214H141.836V36.3275C142.357 35.5733 143.047 34.9508 143.851 34.5094C144.637 34.1008 145.511 33.8931 146.397 33.9049C147.178 33.8954 147.954 34.0473 148.674 34.3512C149.394 34.655 150.044 35.1042 150.583 35.6707C151.146 36.224 151.591 36.8861 151.891 37.6166C152.19 38.3471 152.338 39.131 152.326 39.9205C152.343 40.7194 152.2 41.5137 151.903 42.2556C151.606 42.9976 151.162 43.672 150.599 44.2384C149.751 45.1147 148.648 45.702 147.448 45.9173C146.248 46.1327 145.01 45.9651 143.91 45.4383C143.104 45.0262 142.394 44.4458 141.831 43.7362V49.9199H140.356V34.214ZM146.265 35.3503C145.663 35.3378 145.065 35.4505 144.508 35.6813C143.952 35.9121 143.45 36.256 143.033 36.6911C142.601 37.1303 142.262 37.6521 142.036 38.2253C141.811 38.7986 141.703 39.4114 141.72 40.0273C141.706 40.8498 141.908 41.6616 142.306 42.3817C142.697 43.081 143.277 43.6555 143.981 44.0384C144.682 44.4405 145.477 44.652 146.285 44.652C147.075 44.6531 147.849 44.4394 148.526 44.0339C149.228 43.6194 149.806 43.0236 150.199 42.309C150.604 41.6021 150.818 40.8013 150.818 39.9864C150.818 39.1714 150.604 38.3707 150.199 37.6638C149.813 36.9592 149.243 36.3722 148.551 35.965C147.858 35.5577 147.068 35.3453 146.265 35.3503Z" fill="#292929"/>
<path d="M157.262 29.9438H158.741V34.214H161.087V35.4912H158.741V45.7179H157.262V35.4912H155.242V34.214H157.262V29.9438Z" fill="#292929"/>
<path d="M163.991 34.214H165.471V39.5819C165.471 40.8924 165.541 41.7946 165.682 42.2885C165.878 42.9706 166.307 43.5619 166.896 43.9589C167.526 44.377 168.271 44.5905 169.027 44.5702C169.773 44.5946 170.507 44.3865 171.129 43.9748C171.689 43.5969 172.107 43.0449 172.32 42.4044C172.472 41.9605 172.547 41.0197 172.547 39.5819V34.214H174.059V39.8569C174.059 41.4431 173.873 42.6378 173.502 43.4407C173.15 44.224 172.568 44.8819 171.834 45.327C170.983 45.809 170.016 46.0451 169.039 46.0088C168.058 46.0437 167.087 45.8078 166.232 45.327C165.489 44.8807 164.902 44.2166 164.55 43.4248C164.178 42.6112 163.991 41.3871 163.991 39.7523V34.214Z" fill="#292929"/>
<path d="M189.653 34.214V45.7133H188.197V43.7362C187.63 44.4467 186.918 45.0272 186.108 45.4383C185.006 45.9648 183.766 46.1322 182.564 45.917C181.362 45.7017 180.257 45.1146 179.406 44.2384C178.844 43.6733 178.401 43.0007 178.105 42.2608C177.808 41.5209 177.663 40.7289 177.679 39.9318C177.666 39.1423 177.814 38.3585 178.114 37.628C178.414 36.8974 178.859 36.2354 179.422 35.6821C179.963 35.1154 180.615 34.6666 181.337 34.3639C182.059 34.0612 182.836 33.9111 183.62 33.9231C184.511 33.9112 185.391 34.1188 186.183 34.5276C186.988 34.9663 187.678 35.5893 188.197 36.3457V34.2322L189.653 34.214ZM183.745 35.3503C182.94 35.3449 182.149 35.557 181.455 35.9642C180.761 36.3715 180.189 36.9587 179.802 37.6638C179.394 38.37 179.18 39.171 179.18 39.9864C179.18 40.8017 179.394 41.6028 179.802 42.309C180.193 43.0245 180.771 43.6205 181.474 44.0339C182.156 44.4405 182.935 44.6542 183.729 44.652C184.536 44.6521 185.329 44.4405 186.028 44.0384C186.731 43.6542 187.312 43.0801 187.703 42.3817C188.098 41.6606 188.3 40.8494 188.287 40.0273C188.304 39.4114 188.197 38.7985 187.971 38.2252C187.745 37.652 187.406 37.1302 186.974 36.6911C186.557 36.255 186.055 35.9101 185.498 35.6781C184.942 35.4461 184.343 35.3322 183.74 35.3435L183.745 35.3503Z" fill="#292929"/>
<path d="M193.628 29.7733H195.108V45.7133H193.628V29.7733Z" fill="#292929"/>
<path d="M86.0138 29.7552L84.1457 31.4823C83.2248 29.9741 81.9512 28.7123 80.4346 27.8053C78.9885 26.9709 77.3452 26.5393 75.6757 26.5553C73.8001 26.5515 71.9685 27.1234 70.4283 28.1939C68.8077 29.2991 67.5148 30.8205 66.6853 32.5982C65.778 34.5427 65.3249 36.6682 65.3604 38.8137C65.3604 42.2984 66.3505 45.2013 68.3307 47.5223C70.3109 49.8434 72.8055 51.007 75.8144 51.013C79.1308 51.013 81.9057 49.4487 84.1389 46.3201L86.007 48.0268C84.8996 49.7675 83.3817 51.2096 81.5868 52.2266C79.7789 53.2245 77.7429 53.7359 75.678 53.7106C71.5358 53.7106 68.2678 52.0486 65.874 48.7245C63.8651 45.9201 62.8606 42.5325 62.8606 38.5615C62.8606 34.3844 64.0764 30.8687 66.5081 28.0143C68.9398 25.16 71.985 23.7343 75.6439 23.7373C77.7484 23.7121 79.8198 24.2621 81.6345 25.3281C83.4434 26.4119 84.9497 27.9346 86.0138 29.7552Z" fill="#292929"/>
</svg>
