<svg width="50" height="50" viewBox="0 0 50 50" fill="none" xmlns="http://www.w3.org/2000/svg">
<path d="M45.1897 37.2798C44.7993 37.2844 44.8422 37.2655 44.3232 37.3018V25.1611C44.3232 23.8618 43.2661 22.8046 41.9668 22.8046H36.0176C36.0144 22.8046 36.0113 22.8041 36.0081 22.8041H29.1573V4.51459L34.776 9.94575C35.0936 10.2528 35.2757 10.6821 35.2757 11.1238V20.0841C35.2757 20.4886 35.6036 20.8165 36.0081 20.8165C36.4126 20.8165 36.7405 20.4886 36.7405 20.0841V11.1238C36.7405 10.2872 36.3956 9.47397 35.794 8.89252L28.9339 2.26137C28.7797 2.11664 28.4842 1.98676 28.1915 2.09369L15.8848 6.23041V3.37885C15.894 2.13285 14.7761 1.04838 13.4756 1.12397C12.2317 1.12397 11.2197 2.13549 11.2197 3.37885V7.79848L7.9999 8.8808C6.73516 9.306 5.88535 10.488 5.88535 11.8224V37.2838C2.62607 37.3673 0 40.0427 0 43.3217V47.0461C0 48.0573 0.822559 48.8797 1.83359 48.8797H48.1663C49.1774 48.8797 49.9999 48.0572 49.9999 47.0461V42.0901C50 39.4377 47.8421 37.2798 45.1897 37.2798ZM45.1897 38.7447C47.0344 38.7447 48.5352 40.2454 48.5352 42.0902V42.8585H41.4307V42.0902C41.4323 40.0881 43.1914 38.5712 45.1897 38.7447ZM42.8584 25.1611V37.6797C41.1578 38.4221 39.9658 40.1191 39.9658 42.0901V42.8584H29.1573V24.2695H41.9668C42.4584 24.2695 42.8584 24.6695 42.8584 25.1611ZM12.6846 3.37885C12.6846 2.94321 13.0395 2.58881 13.4756 2.58881C13.8673 2.53129 14.3947 2.83842 14.4199 3.37885V6.7228L12.6846 7.3061V3.37885ZM5.88545 38.7473V42.8585H1.48809C1.71592 40.6025 3.58887 38.8248 5.88545 38.7473ZM1.46484 47.0462V44.3234H5.88545V47.415H1.83369C1.63027 47.415 1.46484 47.2496 1.46484 47.0462ZM7.35029 11.8224C7.35029 11.1179 7.79893 10.4939 8.4667 10.2694L27.6926 3.80688V7.7976L11.7188 13.167C11.3354 13.2958 11.129 13.7112 11.2579 14.0947C11.3607 14.4007 11.6461 14.5939 11.9521 14.5939C12.0294 14.5939 12.1081 14.5816 12.1855 14.5555L27.6926 9.34311V13.0692L11.7188 18.4385C11.3354 18.5674 11.129 18.9828 11.2579 19.3662C11.3607 19.6722 11.6461 19.8654 11.9521 19.8654C12.0294 19.8654 12.1081 19.8531 12.1855 19.827L27.6926 14.6145V18.3406L11.7188 23.71C11.3354 23.8388 11.129 24.2541 11.2579 24.6376C11.3607 24.9437 11.6461 25.1369 11.9521 25.1369C12.0294 25.1369 12.1081 25.1246 12.1855 25.0985L27.6926 19.8861V23.5343C27.6926 23.5353 27.6925 23.5362 27.6925 23.5372V23.6122L11.7188 28.9815C11.3354 29.1104 11.129 29.5257 11.2579 29.9091C11.3607 30.2152 11.6461 30.4083 11.9521 30.4083C12.0294 30.4083 12.1081 30.396 12.1855 30.37L27.6924 25.1575V28.8836L17.7181 32.2364C17.3347 32.3652 17.1283 32.7805 17.2572 33.164C17.3601 33.4701 17.6454 33.6632 17.9514 33.6632C18.0287 33.6632 18.1074 33.6509 18.1849 33.6248L27.6924 30.4289V47.4149H21.365V39.8042C21.365 39.3054 21.1371 38.8462 20.7397 38.5447C20.3424 38.2431 19.8389 38.147 19.3584 38.2812L12.5413 40.1843C11.7633 40.4015 11.2199 41.1173 11.2199 41.9251V47.4149H7.35029V11.8224ZM12.6848 41.9252C12.6848 41.7721 12.7878 41.6365 12.9352 41.5953L15.56 40.8624V47.415H12.6847L12.6848 41.9252ZM17.0248 47.415V40.4535L19.7522 39.692C19.7891 39.6817 19.8234 39.6881 19.854 39.7115C19.8846 39.7347 19.9001 39.766 19.9001 39.8043V47.415H17.0248ZM29.1573 47.415V44.3234H39.9658V47.415H29.1573ZM48.5352 47.0462C48.5352 47.2496 48.3697 47.415 48.1664 47.415H41.4307V44.3234H48.5352V47.0462Z" fill="white"/>
<path d="M11.9521 35.6798C12.0294 35.6798 12.1081 35.6675 12.1855 35.6414L14.9049 34.7274C15.2883 34.5985 15.4946 34.1832 15.3657 33.7997C15.2368 33.4162 14.8215 33.2098 14.4381 33.3389L11.7188 34.2529C11.3354 34.3818 11.129 34.7971 11.2579 35.1806C11.3607 35.4865 11.6461 35.6798 11.9521 35.6798Z" fill="white"/>
<path d="M32.3649 30.3105H39.5477C40.2288 30.3105 40.7829 29.7564 40.7829 29.0754V27.3124C40.7829 26.6313 40.2288 26.0771 39.5477 26.0771H32.3649C31.6838 26.0771 31.1298 26.6313 31.1298 27.3124V29.0754C31.1298 29.7564 31.6839 30.3105 32.3649 30.3105ZM32.5946 27.542H39.3181V28.8457H32.5946V27.542Z" fill="white"/>
<path d="M32.3649 35.8799H39.5477C40.2288 35.8799 40.7829 35.3258 40.7829 34.6446V32.8816C40.7829 32.2005 40.2288 31.6465 39.5477 31.6465H32.3649C31.6838 31.6465 31.1298 32.2006 31.1298 32.8816V34.6446C31.1298 35.3258 31.6839 35.8799 32.3649 35.8799ZM32.5946 33.1113H39.3181V34.415H32.5946V33.1113Z" fill="white"/>
<path d="M32.3649 41.5061H34.7407C35.4219 41.5061 35.976 40.952 35.976 40.2709V38.508C35.976 37.8268 35.4219 37.2727 34.7407 37.2727H32.3649C31.6838 37.2727 31.1298 37.8268 31.1298 38.508V40.2709C31.1298 40.952 31.6839 41.5061 32.3649 41.5061ZM32.5946 38.7375H34.5111V40.0413H32.5946V38.7375Z" fill="white"/>
</svg>
