<svg width="50" height="50" viewBox="0 0 50 50" fill="none" xmlns="http://www.w3.org/2000/svg">
<g clip-path="url(#clip0_219_34)">
<path d="M49.2676 42.345H47.9717V16.0319C47.9717 14.1047 46.4033 12.5368 44.4756 12.5368H42.7552C42.9433 12.1433 43.047 11.7068 43.047 11.2531C43.047 10.1486 42.4408 9.14122 41.4649 8.62394L31.8878 3.5507C31.5304 3.36124 31.087 3.49757 30.8978 3.85509C30.7084 4.21251 30.8447 4.65577 31.2021 4.84513L40.7791 9.91827C41.2819 10.1848 41.5821 10.6838 41.5821 11.2531C41.5821 11.8225 41.2819 12.3214 40.7793 12.5878L31.4695 17.5196L25.5508 10.7702C25.2841 10.466 24.8213 10.4358 24.5172 10.7025C24.2131 10.9692 24.1827 11.4319 24.4494 11.736L30.1393 18.2244L26.6166 20.0905C25.6044 20.626 24.3959 20.626 23.384 20.0907L9.2209 12.588C8.71816 12.3215 8.41787 11.8225 8.41787 11.2532C8.41787 10.684 8.71807 10.185 9.2207 9.91847L23.3835 2.41573C24.3957 1.88019 25.6042 1.88019 26.616 2.41554L28.6434 3.48976C29.0008 3.67921 29.4441 3.54298 29.6335 3.18556C29.8229 2.82814 29.6866 2.38478 29.3293 2.19542L27.3016 1.12101C25.8604 0.358411 24.1395 0.358411 22.6981 1.12111L8.53486 8.62413C7.55918 9.14132 6.95312 10.1487 6.95312 11.2532C6.95312 11.7068 7.05684 12.1433 7.24492 12.5369H5.52441C3.59668 12.5369 2.02832 14.1048 2.02832 16.032V42.3451H0.732422C0.32793 42.3451 0 42.6731 0 43.0776V44.7009C0 47.3201 2.13086 49.4511 4.7501 49.4511H45.2498C47.869 49.4511 50 47.3202 50 44.7009V43.0776C50 42.673 49.6721 42.345 49.2676 42.345ZM31.3004 29.6384L32.2554 31.2925C32.4527 31.6344 32.3211 31.9362 32.2554 32.0501C32.1897 32.164 31.994 32.4289 31.5992 32.4289H31.0015C30.6066 32.4289 30.4111 32.164 30.3453 32.0501C30.2795 31.9361 30.1479 31.6344 30.3453 31.2925L31.3004 29.6384ZM32.0328 18.879L35.0635 17.2735V20.182C35.0635 22.2709 33.883 24.1436 32.0328 25.0328V18.879ZM24.9999 21.9572C25.7904 21.9572 26.5812 21.7665 27.3019 21.3853L30.568 19.6551V25.5995C26.5662 26.9251 22.1388 26.7763 18.2328 25.1528C16.2304 24.3206 14.9365 22.3694 14.9365 20.1821V17.2735L22.6985 21.3854C23.419 21.7667 24.2094 21.9572 24.9999 21.9572ZM3.49316 16.0319C3.49316 14.9124 4.40439 14.0017 5.52441 14.0017H8.76045L12.4473 15.9548H6.17871C5.77422 15.9548 5.44629 16.2827 5.44629 16.6872V39.6599C5.44629 40.0644 5.77422 40.3923 6.17871 40.3923H10.0449C10.4494 40.3923 10.7773 40.0644 10.7773 39.6599C10.7773 39.2554 10.4494 38.9275 10.0449 38.9275H6.91113V17.4196H13.4717V20.182C13.4717 22.9632 15.1198 25.4452 17.6707 26.5055C19.9996 27.4734 22.4998 27.9574 25.0001 27.9574C26.8804 27.9574 28.7605 27.6835 30.5681 27.136V27.9773L29.0769 30.5601C28.6751 31.2559 28.6751 32.0867 29.0769 32.7825C29.4786 33.4783 30.198 33.8938 31.0016 33.8938H31.5993C32.4028 33.8938 33.1223 33.4783 33.524 32.7825C33.9258 32.0867 33.9258 31.2559 33.524 30.5601L32.0328 27.9773V26.6243C32.1318 26.5852 32.231 26.5464 32.3294 26.5055C34.8802 25.4452 36.5283 22.9632 36.5283 20.182V17.4196H43.0889V38.9275H12.9746C12.5701 38.9275 12.2422 39.2554 12.2422 39.6599C12.2422 40.0644 12.5701 40.3923 12.9746 40.3923H43.8213C44.2258 40.3923 44.5537 40.0644 44.5537 39.6599V16.6872C44.5537 16.2827 44.2258 15.9548 43.8213 15.9548H37.5526L41.2395 14.0017H44.4755C45.5955 14.0017 46.5067 14.9124 46.5067 16.0319V42.345H3.49316V16.0319ZM29.5293 43.8103C29.2587 44.5979 28.5104 45.1655 27.6321 45.1655H22.368C21.4896 45.1655 20.7414 44.5979 20.4707 43.8103H29.5293ZM48.5352 44.7008C48.5352 46.5123 47.0613 47.9861 45.2498 47.9861H4.7501C2.93857 47.9861 1.46484 46.5123 1.46484 44.7008V43.8099H2.75322C2.75576 43.8099 2.7582 43.8103 2.76074 43.8103H18.9597C19.2649 45.414 20.6767 46.6304 22.368 46.6304H27.6321C29.3233 46.6304 30.7351 45.4139 31.0403 43.8103H47.2393C47.2418 43.8103 47.2442 43.8099 47.2468 43.8099H48.5352V44.7008Z" fill="white"/>
<path d="M25.2215 36.2419C25.2215 35.8375 24.8936 35.5095 24.4891 35.5095H9.82646C9.42197 35.5095 9.09404 35.8375 9.09404 36.2419C9.09404 36.6464 9.42197 36.9744 9.82646 36.9744H24.4892C24.8936 36.9744 25.2215 36.6464 25.2215 36.2419Z" fill="white"/>
<path d="M9.82646 33.8938H19.6302C20.0347 33.8938 20.3626 33.5659 20.3626 33.1614C20.3626 32.7569 20.0347 32.429 19.6302 32.429H9.82646C9.42197 32.429 9.09404 32.7569 9.09404 33.1614C9.09404 33.5659 9.42187 33.8938 9.82646 33.8938Z" fill="white"/>
</g>
<defs>
<clipPath id="clip0_219_34">
<rect width="50" height="50" fill="white"/>
</clipPath>
</defs>
</svg>
